<svg width="272" height="368" viewBox="0 0 272 368" fill="none" xmlns="http://www.w3.org/2000/svg">
<path fill-rule="evenodd" clip-rule="evenodd" d="M214.331 229.933C209.99 230.154 205.644 231.189 201.718 233.064C200.111 233.832 198.655 234.941 198.229 236.765C198.013 237.697 198.066 238.659 198.181 239.6C198.267 240.313 198.289 241.223 198.907 241.705C199.012 241.787 199.124 241.849 199.242 241.895C197.793 242.55 196.414 243.338 195.188 244.149C194.068 244.891 192.916 246.034 192.399 247.323C192.356 247.176 192.312 247.04 192.269 246.91C191.388 244.298 190.031 242.159 187.892 240.721C187.65 239.834 185.044 236.016 182.623 236.16C179.973 236.316 177.841 236.511 175.444 237.733C174.57 237.713 173.698 237.725 172.837 237.764C172.688 237.769 172.695 237.97 172.837 237.987C173.536 238.076 174.235 238.174 174.934 238.289C176.596 238.556 178.253 238.894 179.873 239.314C181.818 239.819 183.829 240.325 185.647 241.206C189.171 242.918 191.352 247.392 190.905 251.286C190.83 251.924 190.584 253.854 189.7 253.655C188.953 253.487 188.656 251.924 188.395 251.346C187.696 249.81 186.437 248.806 184.926 248.127C183.152 247.327 181.253 246.787 179.414 246.159C178.372 245.801 177.331 245.443 176.287 245.088C175.219 244.721 174.204 244.214 173.067 244.471C172.379 244.627 172.3 245.448 172.686 245.919C173.272 246.636 174.144 246.847 174.989 247.143C176.105 247.531 177.218 247.921 178.332 248.309C180.053 248.909 181.856 249.416 183.534 250.15L183.482 250.27C183.345 250.232 183.185 250.369 183.211 250.537C183.463 252.09 183.812 253.886 183.424 255.441C183.118 256.675 182.038 258.041 180.635 257.678C180.855 257.477 180.937 257.129 180.788 256.807C180.233 255.616 172.954 250.916 172.305 252.662C172.284 252.724 172.35 252.769 172.403 252.76C172.956 252.645 173.883 253.59 174.326 253.89C174.965 254.323 175.614 254.745 176.246 255.189C176.938 255.674 177.613 256.183 178.272 256.709C178.789 257.122 179.179 257.551 179.773 257.76C179.462 257.909 179.215 258.185 179.11 258.538C178.842 259.457 178.325 260.237 177.427 260.643C176.486 261.066 175.425 260.799 174.434 260.903C173.083 261.039 171.905 261.683 170.921 262.602C168.855 264.537 167.818 267.946 164.928 268.86C163.202 269.405 161.286 269.062 159.538 268.814C157.587 268.538 155.686 268.32 153.72 268.608C151.838 268.884 150.059 269.537 148.34 270.334C146.729 271.081 144.947 271.926 143.518 273.039C143.223 272.13 142.926 271.229 142.701 270.3C142.17 268.104 141.882 265.867 141.813 263.61C141.748 261.462 141.868 259.304 142.052 257.165C142.143 256.097 142.287 255.033 142.378 253.965C142.402 253.696 142.45 253.408 142.486 253.12C145.038 251.61 147.72 250.453 150.423 249.262C150.43 249.26 150.437 249.255 150.445 249.253C150.528 249.214 150.61 249.178 150.694 249.142C150.691 249.137 150.689 249.133 150.684 249.128C150.993 248.938 151.208 248.686 151.338 248.403C155.233 245.813 158.49 242.277 160.918 238.153C161.935 236.424 162.914 234.631 164.246 233.117C165.663 231.501 167.346 230.541 169.43 230.041C171.865 229.456 174.374 229.105 176.869 228.906C178.231 228.798 179.754 228.63 181.239 228.637C182.273 228.644 183.285 228.733 184.215 228.99C185.591 229.369 186.396 230.418 187.26 231.479C188.086 232.497 188.908 233.517 189.679 234.578C190.409 235.584 191.099 236.623 191.697 237.713C192.056 238.366 192.389 239.039 192.669 239.732C192.767 239.977 192.897 240.255 192.957 240.51C193.016 240.767 192.906 241.038 193.194 241.038C192.008 241.055 191.221 244.018 192.399 243.948C194.055 243.852 194.888 241.861 194.563 240.095C193.984 236.943 190.857 233.138 190.239 232.331C188.872 230.55 187.461 228.226 185.273 227.398C185.242 227.386 185.208 227.375 185.177 227.365C185.814 226.76 186.317 226.035 186.798 225.298C187.294 224.539 187.885 223.67 188.048 222.77C188.151 222.197 187.44 221.87 187.102 222.372C186.611 223.104 186.374 224.03 186.008 224.835C185.635 225.651 185.18 226.421 184.82 227.245C183.956 226.978 183.022 226.856 182.072 226.815C183.271 225.188 185.321 222.048 185.568 221.644C186.702 219.777 187.782 217.852 188.814 215.924C189.93 213.835 190.885 211.66 191.953 209.548C192.559 208.35 193.17 207.143 193.842 205.981C194.075 205.582 194.324 205.184 194.606 204.821C194.661 204.75 194.731 204.69 194.795 204.622C194.87 204.581 194.946 204.536 194.989 204.512C195.377 204.289 195.514 203.77 195.786 203.441C196.222 202.911 196.735 202.848 197.391 202.841C198.789 202.827 200.192 202.882 201.588 202.92C203.64 202.978 205.69 203.059 207.739 203.167C208.36 203.201 208.977 203.235 209.597 203.273C212.578 203.451 215.557 203.684 218.528 203.969C221.157 204.221 223.786 204.632 226.418 204.829C222.855 213.315 218.904 221.647 214.431 229.689C214.386 229.77 214.352 229.852 214.331 229.933ZM194.563 251.795C193.989 252.059 193.431 252.388 192.911 252.762C192.997 252.179 193.019 251.564 192.995 250.947C193.424 251.408 193.972 251.672 194.563 251.795ZM219.094 237.197C219.053 237.202 219.015 237.224 218.996 237.264C218.201 238.909 218.533 240.745 219.831 242.034C220.511 242.706 221.993 243.465 221.945 244.569C221.905 245.462 220.935 246.211 220.521 246.948C220.135 247.635 219.992 248.388 220.301 249.133C220.696 250.086 221.799 250.465 222.178 251.401C222.657 252.589 221.878 254.023 221.333 255.057C220.825 256.015 220.169 256.973 219.733 257.986C216.814 259.501 210.192 262.251 209.394 262.405C208.422 262.595 207.448 262.775 206.47 262.943C204.596 263.269 202.716 263.572 200.832 263.838C199.759 263.989 198.684 264.138 197.609 264.256C196.671 264.357 195.612 264.493 194.856 263.786C193.33 262.355 194.185 259.956 195.15 258.511C195.169 258.483 195.169 258.456 195.162 258.432C196.072 258.218 196.979 257.969 197.884 257.794C199.625 257.458 201.378 257.175 203.133 256.922C206.739 256.406 210.369 256.065 213.994 255.722C214.891 255.636 214.901 254.219 213.994 254.303C208.786 254.781 203.552 255.235 198.414 256.241C197.125 256.49 195.847 256.773 194.575 257.093C193.975 257.242 193.33 257.475 192.701 257.482C192.662 257.482 192.624 257.482 192.586 257.479C191.353 257.441 191.173 256.382 191.851 255.501C191.934 255.393 192.021 255.285 192.109 255.182C193.306 253.751 194.798 252.796 196.335 251.807C198.057 251.571 199.774 251.048 201.459 250.664C205.621 249.713 209.782 248.763 213.946 247.815C214.762 247.627 214.415 246.37 213.599 246.554C210.438 247.272 207.278 247.99 204.117 248.708L199.491 249.759C198.567 249.968 197.413 250.388 196.326 250.539C195.789 250.614 195.27 250.623 194.801 250.513C193.285 250.153 193.208 248.254 193.862 247.126C194.595 245.858 195.979 245.066 197.207 244.348C199.335 243.102 201.601 242.207 203.813 241.175C204.206 241.088 204.598 241.002 204.991 240.916C207.275 240.411 209.885 240.164 212.035 239.24C212.679 238.966 212.327 237.948 211.69 237.963C210.022 237.999 208.276 238.594 206.645 238.947C204.881 239.331 203.114 239.713 201.349 240.095C201.172 240.133 200.123 240.469 199.965 240.395C199.865 240.347 199.829 239.996 199.795 239.766C199.687 239.007 199.608 238.21 199.726 237.449C199.984 235.742 201.404 234.941 202.841 234.285C206.04 232.828 209.547 231.916 213.038 231.551C213.843 231.467 214.647 231.415 215.457 231.388C216.407 231.359 217.19 231.191 217.672 232.13C218.428 233.608 218.845 235.51 219.094 237.197ZM214.651 290.811C213.954 288.395 214.144 285.814 213.666 283.349C213.42 282.077 213.083 280.815 212.716 279.574C212.42 278.571 211.925 277.504 211.869 276.458C211.866 276.388 211.948 276.347 212.004 276.38C212.988 276.944 213.743 278.165 214.304 279.123C214.975 280.269 215.488 281.469 215.901 282.731C216.725 285.245 217.402 288.278 216.339 290.811C216.023 291.566 214.912 291.717 214.651 290.811ZM187.449 309.107C186.41 308.381 185.653 307.365 184.773 306.468C183.906 305.587 185.26 304.229 186.127 305.111C186.879 305.875 187.531 306.831 188.416 307.449C188.841 307.747 189.038 308.285 188.759 308.763C188.513 309.185 187.873 309.404 187.449 309.107ZM181.656 281.178C183.553 280.356 185.417 279.461 187.402 278.869C188.588 278.515 189.09 280.369 187.911 280.721C186.083 281.266 184.369 282.079 182.623 282.836C181.502 283.322 180.528 281.667 181.656 281.178ZM161.632 280.603C161.169 279.456 163.023 278.962 163.48 280.093C164.006 281.394 164.608 282.662 165.135 283.964C165.598 285.111 163.744 285.605 163.287 284.474C162.761 283.173 162.158 281.905 161.632 280.603ZM141.868 303.508C141.56 303.921 141.044 304.145 140.558 303.853C140.15 303.608 139.902 302.957 140.214 302.539C141.127 301.319 142.052 300.114 143.122 299.026C143.99 298.145 145.344 299.504 144.477 300.384C143.521 301.356 142.684 302.419 141.868 303.508ZM139.043 174.987C139.922 175.589 140.692 176.32 141.443 177.073C142.317 177.948 140.962 179.305 140.089 178.43C139.456 177.796 138.817 177.152 138.076 176.645C137.648 176.352 137.455 175.806 137.732 175.331C137.981 174.906 138.615 174.694 139.043 174.987ZM167.797 205.89C167.3 206.888 166.852 207.866 166.824 209C166.794 210.236 164.878 210.237 164.909 209C164.946 207.516 165.491 206.229 166.143 204.921C166.694 203.813 168.346 204.787 167.797 205.89ZM178.346 181.071C179.376 180.382 180.334 182.047 179.313 182.729C178.486 183.282 177.658 183.835 176.831 184.388C175.801 185.076 174.843 183.412 175.864 182.73C176.691 182.177 177.519 181.624 178.346 181.071ZM132.586 224.465C132.41 225.686 130.565 225.164 130.739 223.955C131.008 222.087 131.337 220.244 131.843 218.424C132.173 217.233 134.021 217.742 133.69 218.935C133.184 220.754 132.855 222.598 132.586 224.465ZM125.871 246.464C124.638 246.438 124.638 244.517 125.871 244.543C126.987 244.567 128.084 244.861 129.16 245.131C130.357 245.431 129.846 247.282 128.65 246.983C127.741 246.755 126.814 246.484 125.871 246.464ZM123.392 290.777C122.968 290.984 122.534 291.17 122.105 291.366C121.248 291.759 120.391 292.153 119.534 292.547C117.75 293.369 115.966 294.193 114.184 295.02C110.616 296.675 107.021 298.273 103.445 299.91C99.7979 301.581 96.1606 303.273 92.5278 304.974C90.8163 305.775 89.0919 306.547 87.3709 307.327C85.8993 307.994 84.0803 309.16 82.4648 309.27C82.3817 309.275 82.3539 309.17 82.4013 309.116C83.0117 308.42 83.9852 308.015 84.7873 307.563C85.6067 307.101 86.4414 306.666 87.2722 306.225C89.0043 305.305 90.7385 304.392 92.4874 303.504C95.9855 301.73 99.4904 299.968 102.996 298.208C106.571 296.413 110.142 294.606 113.749 292.875C115.447 292.06 117.146 291.247 118.847 290.437C119.769 289.998 120.69 289.56 121.612 289.123C122.01 288.934 122.405 288.73 122.812 288.561C123.352 288.337 123.764 288.383 124.321 288.244C125.231 288.019 125.625 289.179 124.927 289.684C124.352 290.1 124.049 290.456 123.392 290.777ZM110.604 310.469C110.408 309.99 110.819 309.408 111.273 309.288C111.817 309.144 112.253 309.476 112.452 309.959C112.977 311.239 113.725 312.414 114.687 313.407C115.548 314.293 114.194 315.652 113.333 314.765C112.126 313.521 111.26 312.067 110.604 310.469ZM101.196 279.644C100.323 278.769 101.678 277.411 102.551 278.286L105.033 280.775C105.906 281.65 104.551 283.008 103.679 282.133L101.196 279.644ZM75.7272 275.586C73.9425 276.111 71.8608 276.593 70.644 278.12C70.5846 278.195 70.4848 278.099 70.5205 278.024C72.0782 274.787 76.5456 273.651 79.6387 272.517C81.8264 271.714 84.0711 271.049 86.3348 270.454C86.1085 267.865 86.7325 265.091 86.9494 262.514C87.1809 259.764 87.3694 257.006 87.4661 254.247C87.565 251.432 87.5889 248.599 87.4965 245.784C87.4046 242.979 87.0413 240.208 86.8824 237.412C86.867 237.142 87.2425 237.129 87.3234 237.352C88.2634 239.947 88.665 242.82 88.971 245.556C89.2861 248.374 89.3907 251.184 89.3505 254.018C89.3088 256.932 89.1398 259.839 88.9078 262.744C88.7979 264.121 88.6702 265.496 88.5498 266.872C88.4579 267.922 88.4152 268.964 88.2017 269.98C89.5669 269.644 90.9353 269.327 92.2994 269.018C96.649 268.034 101.017 267.121 105.348 266.056C107.474 265.534 109.57 264.909 111.687 264.353C113.68 263.83 115.784 263.196 117.83 262.963C118.56 262.879 118.653 263.881 118.17 264.22C116.506 265.391 114.298 266.206 112.377 266.862C110.449 267.519 108.445 267.992 106.469 268.479C102.348 269.496 98.1876 270.326 94.0339 271.192C89.8859 272.056 85.73 272.914 81.6286 273.981C79.6535 274.494 77.6851 275.01 75.7272 275.586ZM65.9467 224.21C64.8803 224.837 63.9175 223.177 64.9801 222.551C66.3706 221.733 67.8524 221.118 69.3463 220.519C70.4927 220.059 70.9859 221.917 69.8556 222.371C68.513 222.909 67.1961 223.475 65.9467 224.21ZM62.0858 295.557C61.0165 296.178 60.053 294.518 61.1192 293.899C62.6166 293.028 64.2565 292.448 65.8083 291.686C66.9123 291.144 67.8821 292.801 66.7749 293.345C65.2234 294.106 63.5832 294.686 62.0858 295.557ZM60.3489 255.057C61.3828 256.042 62.7627 256.505 64.0638 257.022C65.1982 257.473 64.7007 259.33 63.5545 258.874C61.9335 258.23 60.2823 257.641 58.9944 256.415C58.0984 255.561 59.4553 254.206 60.3489 255.057ZM71.7871 200.055C72.9237 200.502 72.4259 202.358 71.2778 201.907C70.0045 201.406 68.6895 201.025 67.4162 200.524C66.2798 200.077 66.7774 198.221 67.9255 198.672C69.1988 199.173 70.5138 199.554 71.7871 200.055ZM91.965 178.208C93.1727 178.004 93.687 179.855 92.4743 180.06C90.9697 180.315 89.488 180.613 88.061 181.166C86.9086 181.613 86.4142 179.756 87.5517 179.315C88.979 178.761 90.4606 178.463 91.965 178.208ZM98.6323 231.4C97.5249 230.854 98.4965 229.198 99.5989 229.741C100.761 230.314 101.964 230.757 103.232 231.027C104.439 231.285 103.925 233.136 102.723 232.879C101.296 232.574 99.9387 232.044 98.6323 231.4ZM104.929 201.438C106.121 201.11 106.626 202.963 105.438 203.29C103.349 203.863 101.198 204.162 99.0939 204.672C97.8946 204.963 97.3872 203.111 98.5847 202.821C100.689 202.31 102.84 202.012 104.929 201.438ZM131.642 192.035C132.854 192.26 132.338 194.111 131.133 193.887C129.85 193.649 128.55 193.645 127.25 193.645C126.015 193.644 126.017 191.724 127.25 191.724C128.727 191.725 130.186 191.765 131.642 192.035ZM218.763 202.068C215.634 201.768 212.5 201.528 209.361 201.348C209.214 201.341 209.071 201.331 208.925 201.324C208.908 201.29 208.886 201.259 208.865 201.225C207.84 199.718 207.086 198.21 206.432 196.506C205.807 194.883 205.202 193.21 204.239 191.746C203.141 190.078 201.659 188.772 200.035 187.641C199.049 188.305 198.135 189.083 197.298 189.907C196.418 190.774 195.063 189.417 195.944 188.549C196.687 187.816 197.481 187.14 198.32 186.528C197.351 185.938 196.363 185.384 195.399 184.832C191.786 182.766 188.087 180.854 184.311 179.107C182.556 178.293 180.779 177.571 178.99 176.838C178.028 176.445 177.077 175.938 176.115 175.482C176.184 174.8 175.981 174.037 175.459 173.588C175.073 173.259 174.774 173.137 174.314 172.904C174.211 172.868 174.149 172.846 174.12 172.834C174.142 172.839 174.204 172.858 174.307 172.892C174.551 173.005 174.57 172.971 174.364 172.794C174.353 172.405 173.588 171.584 173.414 171.183C172.806 169.807 172.617 168.353 171.719 167.099C170.481 165.374 168.403 164.721 166.465 165.306C166.264 163.23 166.212 161.062 165.431 159.209C165.41 159.159 165.34 159.137 165.309 159.192C164.495 160.582 164.425 162.13 164.363 163.734C164.303 165.239 164.361 166.778 164.557 168.273C164.433 168.369 164.306 168.461 164.174 168.549C163.556 168.957 162.891 169.272 162.192 169.505C160.86 169.947 159.464 170.139 158.068 170.206C154.465 170.379 150.751 170.014 147.208 169.394C143.623 168.768 138.128 167.827 134.939 166.029C132.834 164.843 130.892 163.395 128.924 161.994C129.638 159.689 129.82 157.212 129.101 155.265C129.015 155.032 128.651 154.989 128.582 155.265C128.132 157.123 128 158.991 127.401 160.827C127.392 160.853 127.382 160.882 127.373 160.909C127.186 160.782 126.999 160.656 126.812 160.532C126.381 160.246 125.795 160.46 125.536 160.868C121.401 167.4 114.853 167.774 107.976 168.941C100.45 170.218 92.8866 171.596 85.6508 174.095C78.7311 176.486 72.1178 179.967 66.879 185.166C65.693 186.343 64.584 187.598 63.5372 188.907C64.55 189.035 65.5544 189.234 66.5459 189.547C67.7199 189.916 67.2154 191.77 66.0366 191.398C64.7624 190.997 63.4739 190.798 62.1724 190.699C58.6127 195.582 55.8371 201.118 53.437 206.566C48.8334 217.014 45.8368 228.14 44.4579 239.467C45.215 239.012 45.9857 238.579 46.7756 238.176C47.8732 237.616 48.8413 239.274 47.7425 239.834C46.5223 240.456 45.3371 241.142 44.1888 241.886C43.6871 246.844 43.4927 251.834 43.6105 256.817C43.8907 268.694 45.4901 280.92 49.108 292.253C50.8822 297.815 53.2335 303.332 56.7364 308.032C58.3215 310.161 60.1221 312.081 62.2435 313.683C63.2707 314.46 64.3577 315.154 65.5046 315.74C66.9819 316.498 68.907 316.748 70.1808 317.821C70.5998 318.174 70.9231 318.64 71.1673 319.165C71.026 320.164 71.0093 321.165 71.2822 322.164C71.3684 322.476 71.6031 322.73 71.8928 322.853C71.8976 322.939 71.8976 323.023 71.8976 323.105C71.8976 323.143 71.955 323.153 71.9622 323.114C71.9742 323.04 71.9862 322.965 71.9981 322.889C72.0915 322.92 72.1897 322.934 72.2902 322.934C75.9273 322.948 79.5689 322.859 83.2107 322.735C82.9291 321.87 82.6241 321.013 82.3313 320.148C81.9336 318.973 83.7842 318.474 84.1783 319.638C84.5209 320.649 84.8791 321.651 85.1978 322.666C89.0999 322.52 93.0008 322.346 96.8948 322.217C105.177 321.94 113.457 321.849 121.741 321.674C134.606 321.401 147.565 320.841 160.45 321.388C160.895 320.44 161.394 319.514 161.867 318.579C162.425 317.475 164.077 318.448 163.521 319.548C163.192 320.198 162.852 320.839 162.528 321.488C165.138 321.624 167.745 321.803 170.347 322.049C174.786 322.466 179.182 323.208 183.616 323.669C188.125 324.139 192.535 324.055 197.008 323.309C197.813 323.174 198.287 322.687 198.483 322.082C198.49 322.08 198.495 322.075 198.499 322.068C198.729 321.799 198.945 321.576 199.167 321.381C199.434 321.208 199.721 321.062 200.058 320.932C200.688 320.692 201.344 320.546 202.01 320.447C202.743 320.337 203.485 320.327 204.217 320.236C204.835 320.157 205.439 320.039 206.042 319.895C207.127 319.636 208.156 319.298 209.181 318.848C210.074 318.457 210.881 317.896 211.642 317.283C213.218 316.129 214.582 314.655 215.775 313.123C216.469 312.228 217.123 311.299 217.717 310.332C218.751 308.656 219.632 306.915 220.523 305.161C220.846 304.641 221.141 304.108 221.411 303.565C219.67 303.05 217.913 302.631 216.067 302.601C214.834 302.582 214.834 300.661 216.067 300.681C218.184 300.715 220.186 301.211 222.175 301.801C222.272 301.543 222.365 301.283 222.451 301.02C222.688 300.47 222.884 299.906 223.047 299.335C223.142 299.075 223.238 298.816 223.334 298.557C223.55 297.659 223.765 296.759 223.983 295.859C224.416 294.418 224.758 292.956 225.01 291.475C225.221 290.501 225.384 289.519 225.494 288.525C225.829 286.117 226.102 283.714 226.121 281.28C226.092 279.78 225.997 278.282 225.834 276.791C225.764 275.778 225.647 274.77 225.489 273.769C225.283 272.281 225.08 270.807 224.737 269.338C224.481 268.344 224.225 267.35 223.969 266.356C223.329 264.285 222.575 262.254 221.706 260.269C221.658 260.144 221.416 259.87 221.27 259.868C221.16 259.865 221.007 259.966 221.057 260.101C221.062 260.112 221.066 260.127 221.071 260.139C221.021 260.026 220.973 259.911 220.923 259.798C220.88 259.692 220.712 259.481 220.583 259.484C220.576 259.484 220.568 259.484 220.559 259.486C220.593 259.462 220.624 259.431 220.655 259.395C221.514 258.375 222.072 257.033 222.688 255.852C223.198 254.877 223.679 253.85 223.818 252.748C223.94 251.781 223.775 250.827 223.169 250.045C222.479 249.154 221.182 248.736 221.902 247.45C222.721 245.985 223.925 244.716 222.726 243.052C222.115 242.205 221.148 241.739 220.43 241.002C219.604 240.15 219.211 239.01 219.233 237.845C219.283 237.874 219.35 237.86 219.374 237.788C220.068 235.685 219.565 233.376 218.854 231.328C218.466 230.217 217.645 229.912 216.69 229.857C220.827 221.755 224.699 213.523 228.149 205.102C228.264 204.826 228.377 204.55 228.489 204.274C228.657 203.861 228.302 203.312 227.893 203.22C224.91 202.565 221.802 202.356 218.763 202.068Z" fill="black"/>
<path fill-rule="evenodd" clip-rule="evenodd" d="M108.768 49.2438C110.89 48.418 113.348 48.574 115.362 49.8175C119.317 49.6471 123.25 51.9708 125.312 55.3627C125.355 55.4107 125.4 55.4587 125.441 55.5067L125.878 56.0184C126.292 56.507 126.728 57.0456 127.074 57.6017C125.38 57.6406 123.969 58.3341 122.984 59.7348C122.282 60.7342 123.891 61.684 124.61 60.7387L124.635 60.7041C125.226 59.8632 126.119 59.5375 127.113 59.5204C127.398 59.5156 127.614 59.4059 127.767 59.2441C127.828 59.4671 127.883 59.6925 127.933 59.9189C132.936 57.9637 138.33 57.4459 143.703 57.9097C143.467 58.2928 143.27 58.7033 143.119 59.1346C142.947 59.6236 143.314 60.1851 143.786 60.3157C144.298 60.4569 144.76 60.1558 144.945 59.6905L144.962 59.645C145.168 59.0574 145.506 58.553 145.958 58.162C148.487 58.5064 150.998 59.0542 153.448 59.7605C156.393 60.61 159.309 61.6468 162.162 62.8339C161.678 63.0242 161.261 63.3459 160.969 63.8829C160.385 64.9548 161.989 65.9148 162.598 64.8901L162.619 64.8522C162.679 64.7423 162.732 64.6762 162.771 64.6386L162.784 64.6258L162.869 64.587L163.025 64.5418L163.085 64.527C163.139 64.515 163.161 64.5157 163.3 64.508C163.486 64.4974 163.672 64.4984 163.858 64.4981C164.296 64.4979 164.575 64.2528 164.702 63.9393C166.109 64.5776 167.499 65.2497 168.864 65.9538L169.189 66.1226C173.402 68.3343 177.394 71.2389 179.709 75.5127C179.862 75.7984 179.91 76.1104 179.872 76.4081C180.366 77.0034 180.844 77.6179 181.303 78.2421C182.703 80.1529 183.728 82.3254 184.698 84.4786C186.65 88.8092 187.964 93.2574 188.989 97.8952C189.981 102.365 190.781 106.883 191.525 111.4C192.349 116.42 193.034 121.483 193.178 126.574C193.431 135.651 191.665 144.78 186.593 152.421C182.068 159.238 175.253 164.651 167.172 166.384C158.953 168.146 150.256 166.428 143.779 160.926C142.734 160.04 142.878 158.251 143.779 157.344C144.799 156.321 146.304 156.463 147.343 157.344C153.443 162.527 162.322 163.326 169.672 160.686C176.467 158.242 181.79 152.605 185.056 146.275C189.042 138.555 189.713 129.688 189.102 121.147C188.767 116.456 188.072 111.804 187.355 107.159L186.922 104.363C186.45 101.334 185.954 98.3099 185.308 95.3122L185.156 94.6138C184.366 90.9989 183.44 87.2913 182.008 83.8929C181.257 82.1093 180.354 80.3906 179.43 78.6934C179.251 78.3645 179.066 78.0308 178.878 77.6948C178.624 77.7836 178.335 77.798 178.032 77.702C175.42 76.8858 172.737 76.3385 170.006 76.156C168.762 76.0725 167.516 76.0595 166.272 76.1083C164.141 75.9837 161.951 76.1719 159.922 76.8282C159.723 76.657 159.522 76.4895 159.32 76.3219C159.266 76.3176 159.212 76.3118 159.157 76.301C158.64 76.1988 158.276 75.8291 158.056 75.3622C158.045 75.3375 158.034 75.3127 158.025 75.288C157.765 75.0885 157.503 74.8922 157.239 74.6984C156.595 74.8662 156.03 74.3278 155.878 73.7377C155.735 73.6405 155.589 73.5464 155.444 73.4511C155.331 73.479 155.218 73.502 155.108 73.5102C154.634 73.5445 154.176 73.4715 153.756 73.2442C153.224 72.9564 152.884 72.4921 152.656 71.9647C151.851 72.0144 151.037 71.752 150.318 71.2777C149.734 70.8929 149.286 70.3616 148.842 69.8314C143.423 67.4032 137.533 65.9697 131.629 65.6024C131.048 65.7147 130.47 65.8484 129.9 66.004C129.765 66.0409 129.573 66.1134 129.353 66.2003C130.669 66.0405 132.002 66.0246 133.354 66.2203C139.771 67.1524 144.768 71.9789 149.069 76.5348C150.092 76.3272 151.126 77.6583 150.179 78.5397L142.797 85.4127C142.978 86.1813 142.101 86.9389 141.332 86.7543C140.043 86.4432 138.752 86.1408 137.46 85.8433C136.113 86.4984 134.418 86.3863 133.196 85.4367C133.139 85.3925 133.016 85.3219 132.908 85.2518C132.808 85.3351 132.673 85.4187 132.619 85.4542C132.185 85.7432 131.655 85.8282 131.147 85.7471C130.625 85.6638 130.154 85.3976 129.747 85.066C129.489 84.8549 128.886 83.9738 128.55 83.9089L128.518 83.9052C128.741 83.9116 128.022 84.5835 127.828 84.7225C127.377 85.0459 126.879 85.2158 126.317 85.1539C125.339 85.0458 124.498 84.1501 124.02 83.3231L123.984 83.2597L123.969 83.2203L123.956 83.2629C123.954 83.2704 123.951 83.2785 123.948 83.2875C123.876 83.4822 123.651 83.7035 123.498 83.8396C123.062 84.2268 122.523 84.397 121.946 84.296C121.459 84.2107 121.049 83.9146 120.719 83.5563L120.667 83.4992C120.57 83.3887 119.927 82.5212 120.029 82.3134L120.041 82.2958L120.008 82.2891C119.618 82.3856 119.29 82.2889 119.049 82.0865C117.708 81.7913 116.384 81.4473 115.102 81.0099C115.002 81.2931 114.904 81.5764 114.808 81.8621C115.508 82.2966 116.156 82.9159 116.751 83.3576C117.879 84.193 119.006 85.0284 120.132 85.8661L124.59 89.1707L125.1 89.0331C125.752 88.8574 126.311 89.2385 126.55 89.821L126.57 89.8714C126.665 90.1266 126.779 90.3626 126.913 90.5884C128.028 90.5438 128.972 91.2313 129.277 92.2174C129.552 92.2112 129.83 92.2218 130.114 92.2532C130.893 92.3391 131.418 92.9201 131.277 93.7178L131.266 93.7725L131.247 93.8613C131.699 94.0538 132.026 94.4257 132.099 94.9879C132.22 95.1706 132.317 95.3693 132.379 95.5907C132.705 96.7391 132.072 98.1587 131.734 99.2589L131.708 99.3451C131.491 100.068 131.267 100.788 131.04 101.507L130.475 103.293C128.909 108.269 127.382 113.517 128.649 118.734C128.92 119.838 127.515 120.338 126.905 119.473C125.428 117.381 123.832 115.41 122.157 113.517L122.075 113.504C120.902 113.267 120.446 112.434 119.908 111.586C119.591 111.679 119.249 111.702 118.92 111.638C118.442 111.545 118.015 111.271 117.677 110.925C117.391 110.632 117.129 109.88 116.791 109.693C116.368 109.46 115.518 109.793 115.013 109.718C114.602 109.658 114.218 109.516 113.846 109.338C113.163 110.275 112.709 111.376 112.598 112.562C112.555 113.014 112.421 113.395 112.228 113.712C112.94 113.686 113.654 113.736 114.359 113.868C116.968 114.356 118.839 115.973 119.89 118.384C119.936 118.489 119.799 118.576 119.737 118.475C118.177 116.062 114.782 115.94 112.316 116.79C109.697 117.692 108.228 120.009 107.705 122.652C107.132 125.549 107.867 128.672 109.437 131.14C110.166 132.287 111.16 133.334 112.481 133.757C114.051 134.258 115.501 133.36 117.109 133.824C118.203 134.138 118.686 135.202 118.488 136.265C118.409 136.683 118.263 137.048 118.067 137.365C118.646 138.517 119.181 139.703 119.862 140.792C120.913 142.475 122.184 143.868 123.57 145.272C125.001 146.722 126.458 148.143 127.99 149.487C129.457 150.776 131.139 151.693 132.678 152.874C133.758 153.702 134.293 154.864 133.76 156.194C133.321 157.294 131.839 158.23 130.64 157.733C128.344 156.782 126.334 155.164 124.504 153.498C122.808 151.953 121.331 150.104 120.215 148.097C119.163 146.205 118.387 144.057 117.733 141.987L117.651 141.729C117.343 140.744 117.019 139.638 116.808 138.522C115.549 139.213 113.84 139.314 112.493 139.127C110.316 138.826 108.331 137.725 106.83 136.119C106.131 135.371 105.513 134.519 104.979 133.595C105.027 134.157 105.056 134.702 105.087 135.197C106.335 136.569 106.835 138.55 106.393 140.358C107.436 141.437 107.729 143.057 107.184 144.436C108.326 145.575 108.283 147.386 107.789 149.031C109.14 150.548 109.268 152.91 108.213 154.621L108.181 154.744C109.246 156.534 109.006 158.847 107.672 160.428C108.583 162.203 108.442 164.591 106.165 165.28C105.335 165.531 104.531 165.317 103.929 164.85C104.479 167.596 104.725 170.383 103.992 173.142C103.7 174.237 102.635 175.036 101.514 175.036C100.577 175.036 99.8964 174.563 99.426 173.867C99.4809 175.252 99.3973 176.644 99.1034 178.049C98.9261 178.897 98.1432 179.558 97.3119 179.763C97.6118 180.102 97.7312 180.594 97.4438 181.105C96.225 183.273 93.2802 182.374 93.0812 180.297C92.2494 179.674 91.8628 178.65 91.7028 177.543C91.4696 175.93 91.385 174.343 91.1207 172.75L91.0197 172.845L90.9676 172.89L90.9508 173.005C90.7994 173.792 90.3573 174.344 89.7837 174.673C89.9084 176.046 89.6776 177.445 88.8102 178.488C88.2325 179.183 87.2484 179.457 86.4047 179.306C86.3516 179.309 86.2974 179.309 86.241 179.301C84.3303 179.046 83.2247 177.225 83.7277 175.554C82.9583 174.607 82.6343 173.405 82.862 172.217C81.3733 171.227 81.4036 169.051 81.9192 167.304C80.3585 166.066 79.7715 163.753 80.5556 161.914C79.1491 160.159 78.9534 157.714 79.9091 155.715C78.3615 154.438 78.3704 151.972 79.9053 150.666C79.0879 149.035 78.595 147.082 79.4119 145.59C78.8356 144.951 78.5192 144.04 78.5859 143.16C78.6836 141.868 79.5347 140.975 80.5908 140.38L80.6639 139.976C80.9119 140.007 81.1761 139.937 81.4091 139.712C81.6397 139.49 81.8769 139.31 82.1223 139.163C82.4002 139.159 82.6394 139.035 82.8076 138.843C83.2678 138.686 83.7626 138.617 84.3114 138.611C85.4967 138.598 85.5386 136.817 84.4354 136.701C84.2612 136.525 84.0213 136.414 83.7611 136.414L83.5574 136.415C83.081 136.419 82.6001 136.449 82.1582 136.639C81.871 136.762 81.6495 136.948 81.4872 137.176C81.4569 137.52 81.2705 137.863 80.867 138.147C80.4008 138.474 79.7633 138.512 79.2645 138.216C78.5661 137.801 78.5589 137.154 78.6394 136.45C78.8157 134.91 77.9346 133.462 78.1443 131.886C78.2373 131.19 78.4681 130.589 78.8444 130.103C78.0509 128.91 77.9109 127.369 78.5219 126.059C77.2491 124.684 77.029 122.563 77.8407 120.907C77.8524 120.867 77.8615 120.826 77.8741 120.787C77.9659 120.505 78.0923 120.251 78.2316 120.009C77.5191 118.769 77.5243 117.247 78.2485 116.012C77.1516 114.727 77.1167 112.683 78.0923 111.299C78.098 111.184 78.1099 111.069 78.1197 110.954C77.672 109.787 77.7795 108.459 78.3474 107.373C78.1448 106.904 77.9886 106.398 77.8887 105.86C77.6328 104.473 77.7644 103.123 78.1467 101.77C78.2086 101.556 78.2779 101.342 78.352 101.129C78.3644 100.201 78.3995 99.2781 78.4459 98.3565C78.2642 97.5764 78.2349 96.7191 78.2309 95.9233L78.2298 95.4072C78.2209 94.0938 78.1297 92.1708 78.9562 91.0544C78.4256 89.8484 78.6437 88.3288 79.5294 87.3729C78.9077 86.2987 78.7773 84.9796 79.4021 83.7878C79.5024 83.596 79.6188 83.4174 79.7464 83.2484C79.6948 82.1569 79.9234 81.0312 80.5024 79.9465C80.8784 79.2402 81.4402 78.6288 82.108 78.1396C82.0968 77.9948 82.0898 77.8503 82.0922 77.708C82.1039 77.0728 82.2442 76.435 82.4802 75.8399C82.0566 75.1135 81.8602 74.2947 82.108 73.4122C82.3851 72.4136 83.1141 71.5542 84.0242 71.0693C84.0976 70.1278 84.244 69.1919 84.4533 68.2684C83.894 67.017 84.3394 65.3654 85.6035 64.6282C85.4387 63.6282 85.5873 62.5912 86.3117 61.81C86.5863 61.514 86.9098 61.2896 87.2579 61.1408C87.0902 60.1352 87.2794 59.089 87.9716 58.2702C88.5369 57.6017 89.3746 57.1955 90.2271 57.1357C90.5554 55.3867 92.2186 54.0789 93.9733 54.1831C94.1927 53.413 94.7166 52.7416 95.5295 52.4012C95.7376 52.314 95.9479 52.2567 96.1574 52.2247C97.5843 50.7787 99.7086 49.7985 101.548 49.2966C103.392 48.7951 105.262 48.7466 106.846 49.3296L106.962 49.3734L107.091 49.3566C107.65 49.2942 108.209 49.2582 108.768 49.2438ZM94.7492 167.766C94.2565 167.612 93.7069 167.949 93.5734 168.437C93.4324 168.952 93.7464 169.463 94.2409 169.618C94.8572 169.811 95.5044 169.859 96.1467 169.86C96.663 169.86 97.1024 169.418 97.1024 168.899C97.1024 168.378 96.6649 167.94 96.1467 167.939C95.6244 167.939 95.2387 167.92 94.7492 167.766ZM90.367 157.569C89.6304 157.57 88.9986 157.746 88.4524 158.265C88.0883 158.611 88.0792 159.279 88.4524 159.623C88.8294 159.971 89.3763 159.991 89.7632 159.66L89.8378 159.593C89.8467 159.585 89.8537 159.578 89.8593 159.573C89.8903 159.553 89.9216 159.532 89.9546 159.515L89.8923 159.556C89.8448 159.59 89.9549 159.534 90.0166 159.507L90.0361 159.499L90.0423 159.498L90.0918 159.494C90.1833 159.489 90.2752 159.489 90.367 159.489C90.8668 159.489 91.3457 159.048 91.3227 158.529C91.2993 158.009 90.9027 157.568 90.367 157.569ZM104.268 151.477C105.303 150.84 104.379 149.209 103.341 149.796L103.304 149.819C102.772 150.147 102.118 150.102 101.515 150.102C100.285 150.103 100.283 152.024 101.515 152.023L101.719 152.022C102.602 152.015 103.495 151.953 104.268 151.477ZM96.1266 144.468C95.345 144.32 94.4694 144.188 93.6471 144.278L93.5105 144.295H93.2575C93.0377 144.295 92.8248 144.384 92.6539 144.524C92.3835 144.636 92.1273 144.788 91.8937 144.991C90.9626 145.802 92.3194 147.156 93.2453 146.349C93.2967 146.304 93.3564 146.267 93.4227 146.237L93.4737 146.216H94.4961C94.5891 146.216 94.6796 146.196 94.7678 146.168C95.0996 146.214 95.4088 146.28 95.6184 146.319C96.8207 146.547 97.3358 144.696 96.1266 144.468ZM95.2527 126.036C93.7546 125.338 92.0955 125.343 90.7099 126.313C89.7192 127.006 90.6395 128.641 91.6388 127.995L91.6745 127.971C91.7988 127.884 91.9263 127.811 92.0554 127.745C92.7588 127.95 93.4668 127.959 94.1468 127.708L94.2354 127.674L94.2882 127.695C95.3968 128.211 96.3688 126.556 95.2527 126.036ZM111.567 123.027C110.054 122.857 110.042 120.455 111.567 120.627C114.788 120.99 117.711 122.429 119.852 124.899C120.847 126.048 119.208 127.729 118.193 126.631L118.162 126.597C116.46 124.632 114.163 123.32 111.567 123.027ZM94.6131 110.695C94.2767 110.658 93.941 110.64 93.6106 110.656C92.8168 110.694 91.8501 111.226 92.1985 112.188C92.4778 112.958 93.3934 112.988 93.8454 112.577C94.0335 112.582 94.2213 112.594 94.4084 112.614C94.9075 112.665 95.4018 112.761 95.8938 112.858C97.0954 113.096 97.6098 111.245 96.402 111.006L95.8678 110.9C95.6878 110.865 95.5061 110.83 95.3237 110.798C95.2145 110.744 95.0975 110.707 94.9724 110.698L94.9092 110.695H94.6131ZM85.1166 95.7966L85.0044 95.7814C83.3904 95.5739 80.7995 95.7648 80.6037 97.8289C80.4955 98.972 82.1393 99.0438 82.4638 98.0663C83.6556 97.8505 84.8572 97.8092 86.0408 97.9403C86.4924 97.4794 86.496 96.5934 85.7443 96.3723C85.6382 96.0857 85.4167 95.8401 85.1166 95.7966ZM122.009 92.3104C121.636 91.9664 121.024 91.9208 120.657 92.3104C120.446 92.5346 120.269 92.7838 120.129 93.0579L120.036 93.243C120.02 93.2737 120.004 93.3043 119.988 93.3344C119.956 93.3904 119.921 93.4437 119.887 93.4979L119.864 93.5206C119.855 93.5299 119.844 93.5411 119.831 93.5548C119.487 93.9199 119.444 94.5553 119.831 94.9128C120.204 95.2568 120.816 95.3024 121.183 94.9128C121.394 94.6886 121.571 94.4396 121.711 94.1653L121.804 93.9803C121.819 93.9496 121.835 93.9191 121.852 93.889C121.883 93.8328 121.919 93.7795 121.953 93.7252L121.991 93.6871C121.996 93.6814 122.002 93.6752 122.009 93.6684C122.352 93.3035 122.396 92.6678 122.009 92.3104ZM102.41 89.8097C101.063 88.8509 99.4617 88.8063 98.2238 89.9597C97.3304 90.7923 98.643 92.1262 99.5438 91.3461L99.5754 91.3177C99.6082 91.287 99.6414 91.2601 99.6744 91.2344C99.8359 91.3727 100.041 91.4603 100.276 91.4605C100.337 91.4607 100.398 91.4605 100.459 91.4618L100.551 91.4651L100.6 91.4692L100.607 91.4704L100.65 91.4887C100.728 91.5244 100.837 91.5793 100.688 91.4858C100.721 91.5033 100.752 91.5239 100.784 91.5441L100.839 91.5943C101.199 91.9366 101.822 91.9817 102.18 91.6031C102.813 91.3881 103.15 90.3361 102.41 89.8097ZM115.576 86.6639L115.6 86.6561C116.781 86.3174 116.279 84.464 115.092 84.8041C113.833 85.1654 113.231 86.3428 112.979 87.5489C112.873 88.0561 113.127 88.5869 113.647 88.7302C114.121 88.861 114.716 88.5693 114.823 88.0595C114.897 87.7009 114.984 87.3967 115.12 87.1144L115.202 86.9533C115.241 86.8798 115.255 86.8676 115.385 86.7533C115.407 86.7341 115.506 86.6876 115.576 86.6639ZM95.5758 76.9919L95.3911 76.9495C94.2407 76.6964 92.7139 76.5642 92.0193 77.7099C91.3861 78.7536 92.9834 79.7037 93.6411 78.7171C93.6512 78.7168 93.6627 78.7169 93.6761 78.718L93.6978 78.7205L93.9926 78.6965C94.3598 78.6938 94.7113 78.7591 95.0676 78.8439C96.2637 79.1283 96.7743 77.277 95.5758 76.9919ZM136.872 69.6093C137.743 68.7343 136.392 67.3759 135.521 68.2516C134.832 68.9437 134.167 69.6405 133.72 70.5198C133.485 70.9812 133.6 71.5617 134.063 71.8336C134.489 72.0845 135.134 71.9525 135.37 71.4892C135.758 70.727 136.248 70.2368 136.872 69.6093ZM125.882 67.3125C125.021 67.8243 124.464 68.6673 124.126 69.6432C123.957 70.1329 124.32 70.6934 124.794 70.8242C125.304 70.9649 125.769 70.6649 125.953 70.1991L125.969 70.1535C126.06 69.8926 126.205 69.5843 126.384 69.3517C126.537 69.1532 126.774 68.9544 126.954 68.8884C127.384 68.7295 127.69 68.3373 127.65 67.8793C126.941 68.1253 126.284 67.8293 125.882 67.3125ZM100.126 63.1356C99.2579 62.3261 98.0934 62.2188 97.0411 62.7088C96.5726 62.9268 96.4552 63.6054 96.6982 64.0226C96.9792 64.5053 97.5357 64.586 98.0057 64.3671C97.885 64.4232 98.1029 64.3491 98.1971 64.3219C98.2091 64.3276 98.3669 64.3203 98.4213 64.3211L98.4868 64.3253C98.4873 64.3257 98.4712 64.3254 98.4386 64.3243C98.4845 64.3347 98.5298 64.3472 98.5745 64.3615L98.6315 64.3813C98.6028 64.3753 98.7319 64.4598 98.7678 64.4879L98.7743 64.4933C99.6751 65.3333 101.03 63.9784 100.126 63.1356Z" fill="black"/>
<path fill-rule="evenodd" clip-rule="evenodd" d="M169.649 137.15C170.47 135.697 172.922 135.933 173.296 137.628C174.056 141.064 169.97 144.238 166.865 144.317C163.781 144.395 160.32 141.763 160.766 138.438C160.877 137.616 161.972 137.716 162.346 138.231L162.491 138.429C163.505 139.796 164.844 141.21 166.727 140.877C167.507 140.739 168.216 140.25 168.688 139.621C169.256 138.862 169.194 137.955 169.649 137.15ZM150.035 112.012C150.453 111.897 150.874 111.941 151.245 112.099C152.072 112.251 152.763 112.942 153.005 113.732C153.025 113.8 153.046 113.868 153.07 113.934L153.106 114.034L153.007 113.781C153.053 114.03 153.255 114.292 153.328 114.542C153.418 114.85 153.44 115.199 153.409 115.537C153.672 115.54 153.935 115.549 154.198 115.572L154.451 115.595C155.869 115.727 157.426 115.969 158.267 117.198C158.739 117.888 158.296 119.131 157.429 119.264C156.093 119.469 154.943 118.728 153.612 118.58C152.354 118.439 151.038 118.52 149.796 118.747C147.232 119.217 144.877 120.259 142.378 120.913L142.038 120.999L142.039 120.998C141.611 121.101 141.125 120.505 141.548 120.156C143.55 118.507 146.112 117.171 148.636 116.358C148.269 115.771 148.155 114.999 148.406 114.369C148.445 114.239 148.494 114.112 148.545 113.985L148.651 113.725C148.661 113.602 148.685 113.481 148.719 113.362L148.724 113.326L148.727 113.328C148.915 112.716 149.406 112.186 150.035 112.012ZM175.569 112.107C176.116 111.558 176.885 111.639 177.457 112.071L177.532 112.131C178.071 112.37 178.517 112.895 178.809 113.38C179.113 113.885 179.315 114.398 179.323 114.953C180.648 114.958 181.917 115.356 182.89 116.429C183.204 116.775 183.419 117.309 183.246 117.778L183.143 118.057C182.816 118.944 181.347 119.454 180.848 118.412L180.825 118.361C180.295 117.123 178.259 117.253 177.177 117.379C176.423 117.468 175.678 117.656 174.949 117.866C174.693 117.941 174.438 118.021 174.184 118.103L173.93 118.186C173.795 118.23 173.089 118.614 173.528 118.523C173.646 118.499 173.735 118.671 173.615 118.729C173.091 118.98 172.533 118.48 172.568 117.917C172.628 116.938 174.178 116.402 174.924 116.064L174.968 116.044C175.254 115.912 175.554 115.785 175.863 115.667C175.689 115.407 175.545 115.119 175.426 114.81C175.313 114.518 175.237 114.234 175.196 113.924C175.155 113.772 175.155 113.621 175.196 113.469L175.202 113.425C175.181 113.325 175.171 113.221 175.173 113.117L175.168 113.076H175.173C175.187 112.711 175.332 112.344 175.569 112.107ZM166.823 122.526C168.926 123.178 172.395 124.952 171.3 127.692C169.769 130.207 165.711 128.359 163.745 127.546C161.978 126.959 161.058 129.441 162.766 130.19C176.883 135.789 176.831 121.012 167.335 121.229C166.289 121.252 166.257 122.31 166.823 122.526ZM148.146 103.258L148.505 103.153C150.369 102.612 152.271 101.677 153.926 103.135C154.576 103.708 154.71 104.898 154.245 105.613C153.186 107.241 151.615 106.992 149.904 107.131C148.602 107.236 147.318 107.62 146.103 108.099C145.109 108.491 144.187 109.043 143.317 109.659C142.462 110.264 141.878 111.21 141.002 111.755C140.68 111.954 140.309 111.749 140.194 111.425C139.785 110.276 140.476 108.845 141.06 107.867C141.774 106.673 142.858 105.696 144.024 104.957C145.301 104.148 146.712 103.681 148.146 103.258ZM175.307 102.022C178.457 102.021 181.489 103.778 183.251 106.353C183.85 107.228 183.411 108.525 182.552 109.029C181.587 109.594 180.556 109.187 179.921 108.377L179.883 108.327C178.873 106.978 177.57 105.915 176.025 105.224C175.272 104.886 174.439 104.612 173.624 104.473L173.36 104.428C172.991 104.366 172.563 104.306 172.229 104.364C172.05 104.388 171.886 104.447 171.734 104.537C171.807 104.697 171.619 104.889 171.446 104.793C170.663 104.362 170.759 103.593 171.405 102.995C172.32 102.15 174.125 102.022 175.307 102.022Z" fill="black"/>
<path fill-rule="evenodd" clip-rule="evenodd" d="M168.303 131.868C165.64 130.665 160.859 131.714 159.123 132.132C155.087 133.102 151.027 135.199 149.773 138.484C148.359 142.186 151.18 143.352 151.595 143.161C154.388 143.359 157.715 141.598 160.643 141.143C163.02 140.771 165.527 140.447 167.754 139.18C169.379 140.077 173.051 140.562 176.015 141.346C178.539 142.013 179.632 143.46 181.972 143.153C184.776 142.784 183.628 136.871 180.503 134.475C177.082 131.854 171.297 130.79 168.303 131.868ZM173.576 157.151C171.246 157.721 171.089 152.601 170.828 150.793C170.625 149.38 169.475 145.736 166.559 145.893C163.644 146.051 162.548 149.103 162.696 151.002C162.792 152.233 163.924 158.47 160.311 159.26C158.008 159.251 155.344 159.096 152.922 158.648C150.072 158.001 146.365 155.735 145.386 160.197C145.034 161.803 157.59 166.575 163.161 167.006C168.811 168.154 175.422 166.389 179.445 162.055C180.36 161.07 182.938 156.977 183.122 155.975C183.507 153.868 182.614 152.513 180.014 153.255C178.178 154.239 175.074 156.785 173.576 157.151Z" fill="black"/>
<path fill-rule="evenodd" clip-rule="evenodd" d="M189.469 123.977C186.562 126.988 181.709 127.853 177.841 126.238C167.911 122.078 172.771 109.103 180.43 105.619C181.387 105.379 182.665 104.812 183.83 104.683C183.936 104.632 184.165 104.782 184.443 104.64C192.888 105.585 194.811 118.728 189.469 123.977ZM157.438 124.748C154.177 129.083 148.116 130.421 143.163 128.405C133.379 124.542 136.849 113.037 143.543 108.526C157.684 103.199 163.523 116.754 157.438 124.748ZM136.228 115.141C136.219 115.137 136.21 115.135 136.2 115.131C136.252 115.108 136.304 115.085 136.355 115.062C136.338 115.106 136.32 115.149 136.304 115.193C136.279 115.175 136.256 115.155 136.228 115.141ZM196.2 110.455C195.401 110.456 194.248 110.588 193.587 111.143C191.958 105.633 185.943 100.534 180.711 104.252C176.592 105.58 173.535 108.526 171.798 112.442C168.665 110.574 163.739 111.372 161.023 113.842C159.244 107.949 154.866 105.885 149.654 105.58C143.966 104.646 138.297 110.185 136.528 114.628C135.057 114.46 132.859 113.99 131.476 114.901C122.495 112.539 106.794 111.238 104.968 112.549C103.667 113.05 102.953 116.129 104.77 116.295C106.354 116.07 104.586 114.039 106.182 113.817C114.687 113.289 122.944 115.006 131.36 115.727C132.111 116.74 134.539 117.079 135.834 116.672C133.794 124.209 138.198 129.336 144.795 130.872C155.011 133.225 163.899 124.062 161.228 114.532C164.323 112.989 167.882 113.055 171.254 113.868C165.62 134.654 199.011 133.722 193.796 111.855C197.267 113.586 198.021 110.804 196.2 110.455Z" fill="black"/>
</svg>
