<svg width="280" height="368" viewBox="0 0 280 368" fill="none" xmlns="http://www.w3.org/2000/svg">
<path fill-rule="evenodd" clip-rule="evenodd" d="M276.924 205.101L276.322 208.463C276.179 208.51 276.034 208.55 275.886 208.582C275.697 210.586 275.475 212.593 275.224 214.601L271.494 235.447C270.85 239.135 270.239 242.831 269.633 246.528L268.829 250.499L268.332 252.967C267.257 258.312 266.214 263.64 265.298 268.938C265.436 269.138 265.543 269.354 265.622 269.581L265.551 269.88L265.502 270.079L265.452 270.276C264.729 273.061 263.472 275.761 260.509 276.58C258.274 277.198 255.822 277.254 253.514 277.498L253.258 277.526L212.875 282.079C207.996 282.629 203.118 283.196 198.242 283.768L194.014 284.265C188.121 284.95 182.195 285.488 176.389 286.726C176.176 286.772 175.999 286.857 175.855 286.97C177.024 282.533 178.143 278.102 179.157 273.62C180.299 268.576 181.383 263.522 182.604 258.496C185.064 248.37 187.821 238.311 190.84 228.339C191.474 226.246 192.122 224.157 192.784 222.073L193.249 220.616L193.607 219.455C194.16 217.685 194.845 215.866 196.468 214.89C198.368 213.747 200.958 213.558 203.113 213.162L204.572 212.888C206.754 212.479 208.94 212.087 211.128 211.709C221.605 209.903 232.141 208.453 242.716 207.365C253.72 206.232 264.763 205.496 275.818 205.136L276.924 205.101ZM176.692 274.607L176.795 274.615L175.287 286.705C175.046 286.535 174.739 286.432 174.366 286.433C169.418 286.447 164.675 284.862 160.087 283.119L159.388 282.852L157.441 282.101C155.461 281.341 153.47 280.597 151.443 279.98L150.623 279.732L150.207 279.609C148.671 279.16 147.057 278.751 145.46 278.649L145.242 278.638L145.707 278.393C145.775 278.357 145.835 278.317 145.888 278.274C146.767 278.339 147.647 278.321 148.574 278.154C150.318 277.839 152.013 277.231 153.57 276.384L154.266 276.007L154.55 275.855L154.738 275.757L154.925 275.663C156.262 274.994 157.541 274.576 159.229 274.932C161.146 275.336 162.825 276.372 164.553 277.247L164.859 277.4L165.065 277.5L165.276 277.599L165.488 277.696C167.824 278.75 171.543 279.888 172.438 276.703C172.798 275.424 172.516 274.226 171.892 273.175C173.056 273.074 175.134 274.45 176.692 274.607ZM234.846 234.775L234.874 234.92C235.205 236.703 234.376 238.409 233.123 239.652C232.094 240.672 230.274 241.239 229.759 242.706C229.465 243.54 229.777 244.332 230.38 244.884L230.241 244.952L230.106 245.022L229.973 245.092L229.844 245.163L229.718 245.234C227.67 246.414 226.002 248.333 227.849 250.65C229.945 253.278 234.323 253.364 237.408 253.158L237.616 253.143C240.607 252.919 244.151 251.911 245.773 249.142C246.517 247.872 246.435 246.335 245.398 245.248C244.772 244.592 243.656 243.919 242.633 243.839C242.678 243.261 242.609 242.703 242.406 242.231C241.968 241.213 240.8 240.527 239.674 240.502C239.766 238.339 238.038 236.205 236.766 234.476L236.636 234.298L236.51 234.124C235.926 233.31 234.677 233.766 234.846 234.775ZM236.553 237.077L237.712 241.43L237.692 241.466C237.284 242.243 238.354 243.126 238.989 242.473L239.053 242.404C239.806 241.623 240.963 242.672 240.977 243.502C240.998 244.671 240.239 245.575 239.334 246.172L239.271 246.213L239.104 246.317C238.362 246.809 238.924 247.837 239.74 247.712C240.749 247.557 241.577 246.754 242.087 245.752C242.632 245.908 243.252 245.889 243.826 246.211C245.272 247.022 244.44 248.441 243.498 249.298L243.46 249.333L243.383 249.4C241.656 250.877 239.303 251.39 237.086 251.5L236.958 251.506C234.718 251.602 231.8 251.634 229.88 250.313C228.685 249.491 228.339 248.326 229.35 247.222C229.922 246.598 230.499 245.968 231.094 245.36C231.983 245.786 232.778 245.613 233.687 245.21C233.804 245.159 233.739 244.98 233.625 244.98C233.123 244.979 231.282 244.045 231.192 243.448C231.109 242.896 232.128 242.43 232.623 242.163L232.695 242.124L232.757 242.088C233.276 241.773 233.763 241.407 234.209 240.995C235.341 239.951 236.163 238.641 236.521 237.208L236.553 237.077Z" fill="white"/>
<path fill-rule="evenodd" clip-rule="evenodd" d="M128.116 153.678C129.132 151.118 132.566 152.113 132.183 154.802C131.954 156.413 131.074 158.114 130.284 159.526C129.64 160.675 128.906 161.797 127.911 162.658C129.683 164.315 131.522 165.912 133.407 167.428C135.465 169.082 137.629 170.607 139.866 172.009C141.827 173.238 143.877 174.327 145.725 175.729C147.444 177.033 149.01 178.601 149.807 180.648C150.656 182.827 150.287 185.079 149.662 187.257L149.59 187.503C148.951 189.661 147.846 192.263 149.379 194.296C150.159 195.331 151.294 196.064 152.273 196.892C153.144 197.627 153.961 198.427 154.71 199.286C156.345 201.159 157.674 203.266 158.512 205.615L158.587 205.828C159.306 207.907 159.832 210.453 158.86 212.494C158.582 213.079 157.683 212.889 157.527 212.319C157.174 211.029 157.192 209.677 156.896 208.368C156.588 207.007 156.076 205.715 155.407 204.493C154.112 202.128 152.358 200.108 150.286 198.401L149.666 197.895C148.05 196.565 146.565 195.155 146.237 192.954C145.886 190.599 146.827 188.356 147.432 186.127C147.854 184.574 147.991 183.085 147.536 181.682C146.979 182.593 146.219 183.458 145.619 184.229C144.422 185.765 143.215 187.293 142.01 188.823C140.775 190.392 139.57 191.985 138.423 193.62C137.91 194.352 137.402 195.088 136.897 195.824C136.516 196.378 135.985 196.931 135.571 197.495C135.672 197.797 135.664 198.145 135.481 198.393C133.282 201.372 130.153 195.156 129.337 193.585C127.676 190.387 126.439 186.989 124.772 183.792C123.044 180.477 121.077 177.251 118.884 174.225C117.558 172.394 116.072 170.675 114.859 168.787C112 171.385 108.239 173.127 104.785 174.706C100.989 176.442 97.0457 177.859 93.1541 179.365L92.0046 179.812C85.2992 182.436 78.43 185.318 72.8566 189.978C66.3072 195.455 62.4327 203.087 59.5482 210.991C56.2277 220.09 53.4806 229.435 50.9198 238.774C49.6094 243.552 48.366 248.352 47.1971 253.167C46.167 257.409 45.3132 261.694 44.1208 265.892C46.5391 265.807 49.2972 266.745 51.3618 267.016C60.7715 268.251 70.0544 270.22 78.9382 273.628C80.0356 274.049 80.3531 275.147 80.1141 276.038C80.7469 275.859 81.3793 275.677 82.0121 275.499C81.3188 274.434 81.6497 272.53 81.7042 271.35L81.7076 271.268C81.7636 269.695 81.9338 268.121 82.0442 266.55C82.2544 263.557 82.528 260.586 82.8919 257.61L82.9847 256.866C83.397 253.628 83.7018 250.371 84.1517 247.139L84.2049 246.769C83.9892 245.942 83.738 245.125 83.4744 244.312C82.7719 242.145 81.7804 240.106 80.9114 238.008C80.809 237.761 81.16 237.619 81.324 237.767C82.7956 239.094 83.9645 240.778 84.9036 242.539C84.9198 242.456 84.9342 242.373 84.9512 242.29L85.0584 241.761C85.3226 240.471 85.644 239.114 86.4331 238.068C86.5171 237.957 86.6833 237.934 86.7628 238.068C87.518 239.35 87.6025 240.972 87.7186 242.43C87.8501 244.079 87.8666 245.749 87.8434 247.403C87.7981 250.635 87.5709 253.876 87.3899 257.102C87.2123 260.273 86.8636 263.403 86.4141 266.543L86.3287 267.132C86.109 268.626 85.9291 270.139 85.6393 271.623L85.5575 272.027C85.4025 272.763 85.3073 273.801 84.9989 274.663C92.9333 272.444 100.88 270.276 108.842 268.146C114.596 266.606 120.356 265.089 126.114 263.563C126.418 263.014 126.797 262.501 127.269 262.043C128.824 260.533 130.886 259.859 132.777 261.021C132.93 261.116 132.943 261.358 132.777 261.449C132.414 261.648 132.052 261.851 131.695 262.064L135.152 261.125C137.737 260.423 140.352 259.545 142.997 259.056C147.869 256.645 153.109 254.901 158.241 253.176L158.845 252.971C161.473 252.073 164.191 251.068 166.906 250.57C168.894 250.205 171.227 250.645 172.026 252.686C173.038 253.355 173.99 254.141 174.909 254.913C175.573 255.472 176.209 256.065 176.857 256.643L176.976 256.748C177.505 257.209 177.925 257.517 178.055 258.25C178.122 258.629 177.882 259.14 177.416 259.09C175.991 258.937 174.833 257.281 173.866 256.293C173.12 255.528 172.367 254.738 171.686 253.898C171.288 254.115 170.744 254.076 170.491 253.596C169.18 251.107 165.588 252.832 163.601 253.422L160.754 254.267C159.331 254.69 157.908 255.115 156.487 255.547C152.584 256.736 148.699 258.066 144.76 259.158C145.112 259.546 145.064 260.237 144.394 260.5C141.311 261.713 137.928 262.34 134.725 263.172C132.702 263.698 130.681 264.227 128.66 264.759C128.314 265.322 128.064 265.959 127.96 266.7C127.574 269.424 128.318 272.568 129.042 275.203L129.151 275.597C129.747 277.715 130.623 280.313 132.446 281.651C132.891 281.977 133.458 282.204 134.029 282.255C137.599 280.413 141.168 278.572 144.739 276.733C145.4 276.393 146.012 276.854 146.16 277.402C147.419 277.195 148.676 276.869 149.82 276.479C151.743 275.825 153.244 274.576 155.046 273.713C158.534 272.042 162.096 274.094 165.218 275.654L165.938 276.008C167.338 276.69 170.251 277.998 170.923 276.135C171.573 274.333 169.519 272.407 168.192 271.596C166.61 270.628 164.768 270.111 162.98 269.68C161.96 269.433 160.927 269.232 159.887 269.086C158.708 268.919 157.49 268.944 156.355 268.561C155.791 268.371 155.704 267.473 156.355 267.324C158.103 266.926 160.188 267.361 162.012 267.805L162.965 268.04C164.802 268.492 166.657 269.06 168.33 269.961C169.547 270.617 170.832 271.613 171.671 272.833C172.399 272.154 173.306 272.177 174.251 272.429L174.763 272.572C175.61 272.807 176.296 272.969 177.12 272.806C177.23 272.205 177.342 271.604 177.461 271.003C178.635 265.094 179.923 259.208 181.343 253.354C183.793 243.255 186.629 233.267 189.825 223.382L190.146 222.394C190.883 220.133 191.477 217.67 192.665 215.592C193.79 213.628 195.591 212.497 197.73 211.898C200.159 211.218 202.71 210.862 205.188 210.403C205.74 210.301 206.294 210.203 206.847 210.103C206.38 209.257 206.031 208.296 205.717 207.559L205.662 207.432C204.987 205.888 204.38 204.317 203.794 202.738L203.356 201.551C202.299 198.691 201.207 195.879 199.721 193.205C198.156 190.39 196.079 188.09 193.491 186.185C188.215 182.302 181.855 180.321 176.737 176.172C176.527 176.002 176.796 175.711 177.009 175.819C180.464 177.559 184.195 178.743 187.789 180.16L188.499 180.441C191.34 181.57 194.225 182.799 196.684 184.627C199.425 186.666 201.585 189.197 203.208 192.208C204.807 195.175 205.83 198.497 206.959 201.667L207.26 202.511C207.716 203.778 208.186 205.04 208.724 206.273C209.152 207.251 209.95 208.368 210.313 209.486C211.305 209.313 212.298 209.14 213.291 208.974C234.808 205.372 256.566 203.256 278.372 202.637C279.226 202.612 279.667 203.429 279.541 204.175C277.448 216.581 275.589 229.03 273.548 241.445C272.658 246.864 271.749 252.278 270.819 257.69C270.348 260.432 269.804 263.163 269.358 265.909C268.998 268.127 268.736 270.362 268.118 272.528C267.564 274.47 266.713 276.343 265.315 277.825C263.808 279.422 261.706 280.196 259.589 280.561C254.216 281.488 248.705 281.867 243.288 282.484L214.448 285.774C214.87 289.614 214.901 293.395 214.708 297.28L214.598 299.401C214.508 301.107 214.4 302.816 214.156 304.504C213.849 306.622 212.883 308.415 211.459 309.997C210.152 311.45 208.564 312.69 207.02 313.878C205.416 315.111 203.76 316.301 201.875 317.064L201.63 317.161C199.976 317.809 196.874 318.811 194.613 318.445C194.909 319.929 195.481 321.525 194.974 322.994C194.739 323.676 193.849 324.016 193.304 323.436C192.225 322.285 192.14 320.766 191.885 319.266C191.619 317.705 191.389 316.138 191.185 314.567C190.791 311.53 190.485 308.466 190.391 305.403C190.295 302.258 190.332 299.108 190.501 295.967C190.588 294.353 190.696 292.741 190.9 291.138C190.987 290.454 191.076 289.77 191.178 289.088C191.215 288.839 191.256 288.592 191.3 288.345L188.712 288.638C184.743 289.082 180.772 289.483 176.775 289.545C176.301 289.552 175.937 289.336 175.699 289.022C175.446 289.436 175.004 289.732 174.372 289.73C168.79 289.709 163.592 287.879 158.515 285.722C155.955 284.635 153.436 283.458 150.873 282.379C148.481 281.373 145.924 280.655 143.589 279.522L137.455 282.747C137.41 282.906 137.352 283.056 137.291 283.182C136.891 283.999 136.104 284.442 135.299 284.776C134.528 285.098 133.728 285.197 132.949 285.116C128.297 287.56 123.643 290.002 118.987 292.439L114.329 294.873C105.05 299.717 95.8068 304.64 86.4688 309.37L85.7813 309.717C82.5559 311.339 79.0925 312.982 75.5131 314.209C75.4494 315.117 75.4896 316.001 75.5655 316.962L75.5838 317.171C75.6905 318.308 75.9194 319.731 75.0103 320.54C74.5374 320.961 73.6927 320.962 73.3711 320.328C72.7876 319.178 73.3115 317.365 73.4963 316.115C73.5619 315.671 73.6419 315.214 73.7602 314.771C69.6567 315.996 65.429 316.59 61.2532 315.902C57.1876 315.233 54.0387 312.665 51.5002 309.524C48.8212 306.21 46.9174 302.347 45.896 298.207C44.7335 293.495 44.6576 288.629 44.6849 283.803C44.7139 278.663 44.9035 273.499 45.527 268.394C44.8439 268.233 44.0863 268.094 43.396 268.142C43.0541 268.69 42.3909 268.921 41.7916 268.85C40.4883 270.291 43.794 271.764 44.8504 272.132C45.2172 272.261 45.1779 272.858 44.7548 272.84L44.4883 272.827C42.856 272.74 41.1696 272.461 40.2098 270.94C39.4408 269.721 39.6718 268.277 40.5886 267.283C41.1942 261.542 42.6418 255.953 43.9891 250.353C45.3113 244.857 46.7817 239.397 48.3402 233.964L49.0388 231.532C51.4927 223.013 54.0575 214.425 57.4423 206.244C59.1325 202.16 61.0796 198.15 63.7189 194.588C66.1791 191.268 69.0837 188.427 72.4225 186.001C78.6466 181.477 85.95 178.743 93.1259 176.139L93.4471 176.022C97.1658 174.674 100.875 173.309 104.552 171.848C107.803 170.556 110.918 168.917 114.154 167.606C114.049 167.414 113.947 167.221 113.85 167.025L113.79 167.076C113.779 167.084 113.769 167.092 113.758 167.099C113.433 167.325 112.954 167.214 112.685 166.96C111.928 166.244 112.185 165.449 112.69 164.706L112.756 164.612C113.374 163.743 113.925 162.825 114.496 161.926L114.853 161.363C115.811 159.86 116.818 158.347 118.095 157.104C118.686 156.529 119.333 156.098 120.019 155.777C119.961 155.653 120.475 155.399 120.621 155.526C122.794 154.729 125.295 154.896 127.664 155.116M213.053 285.933L210.031 286.277C206.706 286.656 203.381 287.023 200.055 287.386L192.83 288.173C192.812 288.586 192.762 288.99 192.753 289.302C192.706 290.909 192.67 292.518 192.637 294.126C192.57 297.349 192.644 300.576 192.855 303.793C193.06 306.91 193.331 310.028 193.751 313.125L193.837 313.743L193.886 314.069C194.229 314.102 194.566 314.265 194.846 314.601C195.457 315.332 197.669 314.621 198.533 314.313C199.954 313.806 201.293 312.949 202.527 312.09C203.733 311.252 204.819 310.274 205.862 309.244L206.716 308.397C207.565 307.551 208.416 306.65 208.936 305.586C209.641 304.142 209.733 302.371 209.94 300.799C210.194 298.866 210.498 296.932 210.818 295.009M125.334 265.638L125.021 265.721C113.636 268.754 102.267 271.876 90.8467 274.776C85.195 276.211 79.5165 277.541 73.8579 278.949L72.9418 279.178C68.4778 280.31 63.9601 281.671 60.5417 284.917C60.4155 285.037 60.2323 284.853 60.3511 284.726C64.0353 280.794 69.2751 279.129 74.3062 277.686C75.2361 277.42 76.1673 277.159 77.0975 276.894C70.2554 274.449 63.3052 272.321 56.1947 270.804C54.3637 270.413 52.5114 270.126 50.6819 269.734C49.406 269.46 48.1599 269.064 46.8974 268.736L45.9044 268.486L45.8912 271.632C45.8747 276.089 45.8826 280.542 46.1094 284.998L46.1523 285.823C46.4169 290.782 46.8299 295.844 48.5852 300.52C50.0115 304.319 52.2849 307.898 55.258 310.666C56.7624 312.066 58.3798 313.156 60.3791 313.695C62.2354 314.194 64.1804 314.253 66.0887 314.119C75.2421 313.479 83.3901 308.494 91.3414 304.367C104.347 297.616 117.354 290.868 130.372 284.143C130.02 283.902 129.689 283.624 129.388 283.311C127.642 281.504 126.721 279.029 126.116 276.633C125.472 274.082 125.087 271.348 125.043 268.715M141.899 286.749C142.014 286.687 142.147 286.764 142.152 286.895C142.192 287.891 141.643 288.875 141.232 289.773L141.189 289.869C140.69 290.981 140.144 292.079 139.579 293.159C138.45 295.317 137.277 297.452 136.052 299.557C133.59 303.792 130.854 307.849 127.619 311.536C126.889 312.369 125.687 311.301 126.156 310.404C128.417 306.081 131.052 301.998 133.764 297.952C135.122 295.926 136.479 293.898 137.85 291.881C138.422 291.039 139.001 290.201 139.596 289.375L139.955 288.881M276.931 205.113C265.506 205.459 254.094 206.206 242.723 207.377C232.148 208.465 221.612 209.914 211.135 211.721C208.947 212.098 206.761 212.491 204.578 212.899L203.269 213.146C201.086 213.561 198.419 213.732 196.475 214.902C194.426 216.134 193.872 218.71 193.19 220.835C192.388 223.333 191.607 225.839 190.847 228.351C187.828 238.323 185.07 248.382 182.61 258.507C181.389 263.533 180.306 268.588 179.164 273.632C178.15 278.114 177.031 282.545 175.862 286.982C176.006 286.869 176.183 286.784 176.396 286.738C182.202 285.5 188.128 284.961 194.021 284.277L194.591 284.211C200.687 283.492 206.783 282.778 212.882 282.091L253.265 277.538C255.647 277.269 258.198 277.233 260.516 276.592C264.457 275.502 265.38 271.086 266.041 267.568L266.061 267.462C268.055 256.834 269.641 246.114 271.5 235.459M176.801 274.627C175.233 274.523 173.087 273.084 171.898 273.187C172.522 274.237 172.804 275.435 172.444 276.715C171.443 280.275 166.913 278.433 164.732 277.345C162.943 276.453 161.215 275.361 159.235 274.944C156.992 274.471 155.472 275.365 153.576 276.396C152.019 277.243 150.324 277.851 148.58 278.166C147.653 278.333 146.773 278.351 145.894 278.286C145.841 278.329 145.781 278.369 145.713 278.405L145.248 278.649C147.351 278.746 149.492 279.396 151.449 279.992C153.476 280.609 155.467 281.352 157.447 282.113L159.394 282.863C164.199 284.708 169.172 286.46 174.372 286.444C174.745 286.443 175.051 286.547 175.293 286.716M168.03 263.471C169.579 263.281 171.008 263.484 172.246 264.495C173.738 265.714 174.741 267.736 176.887 267.869C177.513 267.907 177.658 268.789 177.036 268.974C175.439 269.448 174.146 268.581 173.058 267.457L172.326 266.69C171.25 265.574 170.259 264.711 168.434 264.777C166.479 264.849 164.522 265.302 162.58 265.532C160.381 265.792 158.182 266.015 155.975 266.207C155.873 266.215 155.855 266.054 155.951 266.03L158.423 265.413M166.534 257.122L166.79 257.097C169.039 256.878 171.096 256.869 173.105 258.082L173.49 258.316C175.301 259.419 177.272 260.72 178.405 262.506C178.59 262.799 178.284 263.143 177.974 263.069C175.797 262.545 174.206 260.944 172.375 259.745C170.321 258.401 168.199 258.622 165.856 258.831C163.589 259.034 161.322 259.312 159.076 259.691C156.966 260.046 154.849 260.608 152.718 260.787L152.718 260.783C152.475 260.782 152.336 260.416 152.584 260.291C154.747 259.209 157.252 258.696 159.605 258.201M234.861 234.835C234.644 233.792 235.923 233.309 236.516 234.136L236.642 234.31C237.922 236.069 239.775 238.277 239.68 240.514C240.806 240.539 241.973 241.225 242.412 242.243C242.615 242.714 242.684 243.273 242.639 243.851C243.662 243.931 244.778 244.604 245.404 245.26C246.441 246.347 246.523 247.884 245.779 249.154C244.157 251.923 240.613 252.93 237.622 253.155L237.515 253.163C234.426 253.377 229.974 253.319 227.855 250.662C225.812 248.098 228.07 246.023 230.386 244.896C229.783 244.344 229.471 243.552 229.765 242.718C230.28 241.251 232.1 240.684 233.128 239.664C234.382 238.421 235.211 236.715 234.88 234.932M236.559 237.089C236.218 238.574 235.381 239.931 234.215 241.007C233.769 241.419 233.282 241.785 232.763 242.1L232.701 242.136C232.241 242.395 231.111 242.88 231.198 243.46C231.287 244.057 233.129 244.991 233.631 244.992C233.745 244.992 233.81 245.17 233.693 245.222C232.783 245.625 231.989 245.798 231.1 245.372C230.505 245.98 229.928 246.61 229.356 247.234C228.345 248.338 228.691 249.503 229.886 250.325C231.806 251.646 234.724 251.614 236.964 251.518C239.218 251.421 241.628 250.917 243.389 249.412L243.466 249.345C244.423 248.491 245.297 247.045 243.832 246.223C243.258 245.901 242.638 245.92 242.093 245.764C241.583 246.766 240.755 247.569 239.746 247.724C238.93 247.849 238.368 246.821 239.11 246.329L239.277 246.225C240.209 245.629 241.004 244.71 240.983 243.514C240.969 242.684 239.812 241.635 239.059 242.415L239.024 242.453C238.394 243.165 237.283 242.267 237.698 241.478L237.718 241.442M89.5164 195.805C89.5135 195.627 89.7637 195.56 89.8511 195.714C91.3146 198.296 92.0796 201.46 92.8592 204.304C93.6757 207.283 94.3348 210.292 94.927 213.323C96.1263 219.462 96.7654 225.565 96.8087 231.821C96.8147 232.714 95.3632 232.952 95.2212 232.037C94.2786 225.951 93.3754 219.859 92.4256 213.775C91.9476 210.715 91.3914 207.667 90.8592 204.616M104.004 200.301C103.896 199.945 104.413 199.826 104.545 200.151C107.482 207.379 108.477 215.57 106.591 223.195C106.303 224.362 104.599 223.857 104.816 222.705M141.887 193.879C141.873 193.612 142.218 193.57 142.348 193.754C143.739 195.719 144.316 198.352 146.758 199.368C147.977 199.875 149.349 199.787 150.426 200.644C151.146 201.217 151.698 202.121 151.157 202.989C150.983 203.269 150.495 203.41 150.259 203.105C149.913 202.661 149.731 202.13 149.262 201.797C148.6 201.328 147.708 201.299 146.949 201.078C145.968 200.793 145.103 200.294 144.395 199.552M165.136 161.092C165.28 161.018 165.417 161.065 165.509 161.189C165.64 161.367 165.624 161.539 165.463 161.66C165.678 162.1 165.931 163.199 165.967 163.36C166.114 164.009 166.269 164.654 166.432 165.299C166.761 166.599 167.05 167.909 167.379 169.21C167.728 170.589 168.144 171.953 168.607 173.298C168.637 173.385 168.669 173.474 168.704 173.564L168.757 173.7L168.77 173.68C168.864 173.531 169.06 173.635 169.036 173.792C169.015 173.936 168.986 174.079 168.961 174.222L169.01 174.351C169.313 175.168 169.52 176.028 168.965 176.749C168.757 177.019 168.528 177.178 168.243 177.226C167.786 178.736 167.213 180.217 166.599 181.64L166.42 182.056C165.517 184.133 164.554 186.182 163.117 187.95C161.547 189.88 159.389 191.197 158.022 193.312C157.386 194.296 156.944 195.33 156.584 196.441L156.449 196.863C156.194 197.649 155.9 198.411 155.165 198.871C154.93 199.018 154.579 198.972 154.39 198.771C152.882 197.172 154.46 194.186 155.37 192.638C156.633 190.485 158.462 189.108 160.294 187.484C162.268 185.733 163.527 183.391 164.745 181.084C165.491 179.671 166.211 178.227 166.97 176.807C166.178 176.105 165.924 174.711 165.656 173.742L165.631 173.655C165.187 172.102 164.835 170.51 164.612 168.911C164.398 167.373 164.309 165.857 164.365 164.31L164.382 163.916M168.081 168.411C167.906 168.17 168.196 167.898 168.436 167.948C169.896 168.251 171.324 169.137 172.634 169.853L172.774 169.93C173.821 170.495 174.873 171.188 175.422 172.287C176.02 173.481 175.971 174.856 175.889 176.154L175.881 176.275C175.782 177.832 175.765 179.449 175.437 180.977C175.269 181.759 174.562 181.979 173.958 181.794C173.239 184.07 171.22 185.746 169.745 187.542C167.865 189.831 168.219 192.922 168.415 195.679C168.495 196.795 167.11 197.112 166.397 196.517L164.753 195.148C164.479 194.919 164.206 194.691 163.933 194.461C163.699 194.264 163.468 194.065 163.239 193.864L162.896 193.561C162.744 193.424 162.073 192.673 161.877 192.642C161.402 192.566 160.274 193.821 159.887 194.215L159.838 194.264C159.111 194.979 158.455 195.748 157.843 196.563C157.73 196.713 157.51 196.589 157.591 196.415C158.139 195.238 158.776 194.113 159.533 193.059L159.686 192.85C160.19 192.169 160.866 190.968 161.754 190.767C162.84 190.522 163.923 191.613 164.713 192.219L164.763 192.257C165.139 192.539 165.51 192.827 165.881 193.116C165.842 191.064 166.1 188.989 167.157 187.221C167.903 185.973 169.02 185.049 169.975 183.977C171.039 182.783 171.594 181.316 172.557 180.073C172.682 179.913 172.852 179.827 173.038 179.799C173.075 178.8 173.221 177.79 173.335 176.802L173.368 176.506C173.482 175.432 173.753 174.119 173.229 173.113C172.733 172.163 171.596 171.492 170.754 170.848L170.067 170.313M120.693 157.052C120.254 157.307 119.843 157.624 119.47 158.021C118.297 159.269 117.458 160.822 116.641 162.316C116.202 163.121 115.778 163.934 115.335 164.737C115.142 165.086 114.944 165.432 114.743 165.777C114.651 165.935 114.375 166.251 114.239 166.446C114.39 166.659 114.547 166.869 114.707 167.076C114.768 167.155 118.978 171.753 120.445 173.552C122.692 176.308 124.7 179.219 126.417 182.335C128.099 185.386 129.379 188.617 130.936 191.727C131.716 193.285 132.586 194.831 133.696 196.178C133.739 196.231 133.784 196.281 133.828 196.333C134.252 195.185 135.337 193.957 135.87 193.252L135.92 193.185C137.129 191.551 138.405 189.967 139.71 188.409C140.901 186.987 142.123 185.595 143.374 184.226L143.845 183.714C144.717 182.77 145.824 181.357 147.1 180.683C146.963 180.438 146.805 180.197 146.623 179.958C145.428 178.392 143.737 177.255 142.069 176.229L140.988 175.569C136.911 173.078 132.897 170.472 129.357 167.235C127.485 165.523 125.638 163.729 124.064 161.731L123.507 161.025M127.496 155.819C125.587 155.98 123.525 155.942 121.761 156.565C123.329 158.052 124.82 159.657 126.352 161.169C126.488 160.146 126.767 159.136 127.003 158.139" fill="black"/>
<path fill-rule="evenodd" clip-rule="evenodd" d="M141.193 56.7857C149.758 55.9143 158.152 56.6465 166.593 58.1615C167.238 58.2788 167.604 58.704 167.74 59.215C171.716 59.3975 175.697 59.6906 179.667 59.909C181.108 59.9883 181.925 61.4187 181.268 62.7104C181.137 62.9671 181.001 63.2167 180.862 63.4664L181.036 63.4087C182.231 63.0237 183.521 62.8339 184.685 63.445C186.166 64.2228 186.747 65.9389 186.42 67.5185C186.336 67.9217 186.195 68.3082 186.035 68.6853C186.36 68.6637 186.687 68.6709 187.012 68.7142C188.742 68.9446 190.028 70.2769 190.119 72.0509C190.252 74.7296 188.534 77.4473 186.511 79.365C186.804 79.9726 186.917 80.688 186.795 81.4129C186.551 82.846 185.5 83.7042 184.282 84.264C184.79 85.8846 185.03 87.5789 184.889 89.3104C184.841 89.8884 184.338 90.3659 183.807 90.483C185.787 95.9596 186.789 101.839 187.509 107.569C188.023 111.645 188.276 115.745 188.307 119.852C188.322 121.706 188.292 123.563 188.214 125.417L188.183 126.113C188.088 128.117 188.083 130.222 187.724 132.206C188.948 134.296 189.44 136.891 189.648 139.234C189.906 142.134 189.497 145.125 188.587 147.883C185.151 158.306 174.782 164.884 164.366 166.593C154.726 168.175 143.57 166.046 137.936 157.248C137.847 157.108 138.036 156.993 138.146 157.085C142.177 160.378 146.853 161.847 151.932 162.562C160.716 163.796 170.588 161.703 177.636 156.153C181.02 153.489 183.459 149.609 184.532 145.435C185.079 143.301 185.268 141.075 185.053 138.879C184.833 136.651 183.851 134.75 183.233 132.645C183.025 131.934 183.244 131.274 183.677 130.804C183.799 129.094 184.085 127.371 184.195 125.667C184.317 123.729 184.391 121.792 184.418 119.852C184.468 115.829 184.301 111.798 183.964 107.792C183.347 100.456 181.711 93.2979 180.75 86.0241C180.394 86.3445 179.885 86.4761 179.35 86.1961L179.295 86.1657L179.003 85.9979C178.987 85.9979 178.968 86.0003 178.951 86.0025C176.956 86.1971 174.887 85.9187 172.975 85.3207C170.975 84.6968 169.119 83.7366 167.46 82.4571C167.145 84.0628 167.014 85.6856 167.011 87.3228C167.009 88.3454 165.931 88.8761 165.076 88.4392C161.284 86.5042 157.662 84.2743 154.224 81.7682C153.822 83.835 153.421 85.9016 153.017 87.9709C152.862 88.7681 151.851 89.0898 151.204 88.7105C148.628 87.2051 146.404 85.2345 144.593 82.8914C144.231 83.5861 143.868 84.2807 143.503 84.9738L142.953 86.0121C142.411 87.0323 141.685 88.1608 140.497 88.487C139.24 88.8327 138.191 88.0143 137.769 86.8715C137.64 86.5164 137.52 86.1513 137.41 85.784C136.34 88.24 135.131 90.6405 133.764 92.9306C131.714 96.3655 129.253 99.4262 126.799 102.566C126.054 103.519 124.778 102.609 124.675 101.683C124.615 101.138 124.565 100.591 124.522 100.046C123.092 102.944 121.6 105.816 119.975 108.605L120.208 109.521C120.878 112.228 121.435 114.955 122.041 117.676C122.236 118.555 121.772 119.81 120.751 119.96C119.531 120.138 118.376 120.764 117.127 120.334C115.764 119.864 115.495 118.68 114.852 117.559C114.723 117.335 114.574 117.13 114.413 116.935L114.372 116.988C114.272 117.121 114.033 116.977 114.093 116.825L114.163 116.651C113.61 116.061 112.949 115.57 112.341 115.041C110.896 114.796 109.27 115.064 108.275 115.654C106.007 116.998 104.966 119.768 104.944 122.315C104.918 125.297 105.838 128.648 107.391 131.197C108.074 132.318 109.011 133.331 110.248 133.828C111.477 134.323 112.807 134.169 114.057 134.635C114.884 134.945 115.393 135.866 114.893 136.701C114.86 136.759 114.822 136.812 114.786 136.867L115.157 137.363C115.413 137.706 115.679 138.074 115.928 138.456C116.563 139.191 117.232 139.899 117.88 140.622C119.077 141.954 120.238 143.322 121.416 144.674C122.527 145.949 123.703 147.146 124.914 148.325C126.059 149.441 127.487 150.38 128.539 151.571C129.561 152.732 129.838 154.761 128.156 155.433C126.295 156.179 124.647 154.431 123.395 153.266L123.342 153.217C121.045 151.094 118.971 148.667 117.324 145.996C115.693 147.112 113.333 147.218 111.709 146.103C110.854 145.516 110.198 144.529 109.879 143.456C109.579 143.524 109.278 143.564 108.986 143.559C108.835 143.647 108.684 143.732 108.531 143.812C107.319 144.446 105.831 144.163 105.276 142.816C104.772 141.593 105.292 140.204 105.746 139.026L105.84 138.783C106.098 138.111 106.383 137.379 106.736 136.69C105.752 135.946 104.911 135.021 104.199 133.97C101.807 130.429 100.612 125.251 101.14 121.026C101.458 118.477 102.65 115.836 104.602 114.117L104.531 113.93C103.984 112.536 103.487 111.136 103.164 109.662C102.787 107.939 102.602 106.153 102.435 104.398C102.082 100.692 102.177 96.9011 102.648 93.2091C103.532 86.2596 105.773 79.4373 109.752 73.6544C108.624 72.2979 107.73 70.7015 108.196 68.8654C108.409 68.0226 108.894 67.2234 109.625 66.7407C110.028 66.4745 110.509 66.4337 110.913 66.2128L111.034 66.1456C111.212 66.0417 111.076 66.0527 110.97 65.5695C110.552 63.6392 110.898 61.7742 113.013 61.1333C115.003 60.5308 116.886 61.8103 118.064 63.3346C121.146 61.1379 125.208 59.9883 128.78 59.0112C132.842 57.9044 137.009 57.2133 141.193 56.7857ZM107.9 121.528C107.885 119.956 109.369 118.986 110.829 119.243C111.809 119.414 112.627 120.002 113.395 120.61L113.77 120.907C114.705 121.645 115.778 122.44 116.336 123.485C117.153 125.026 115.426 127.099 113.813 126.019C112.707 125.274 111.998 124.081 111.272 122.972L111.197 122.858C110.867 122.361 110.578 121.833 110.126 121.434L110.029 121.348C109.88 121.221 109.721 121.105 109.529 121.05C109.159 120.943 108.474 121.093 108.31 121.535L108.296 121.581C108.236 121.804 107.902 121.756 107.9 121.528Z" fill="black"/>
<path fill-rule="evenodd" clip-rule="evenodd" d="M169.969 143.291C168.344 143.932 166.424 144.083 164.747 143.537C163.143 143.015 161.687 141.854 160.806 140.393C160.021 139.092 159.693 137.548 160.157 136.009C160.179 135.935 160.251 135.888 160.32 135.869C160.7 136.216 160.934 136.56 161.169 136.902C161.564 137.479 161.959 138.051 162.503 138.544C163.293 139.262 164.358 139.845 165.415 140.037C166.45 140.226 167.51 140.059 168.436 139.562C169 139.261 169.456 138.857 169.907 138.452C170.398 138.01 170.882 137.562 171.559 137.313C172.101 137.113 172.671 137.282 173.108 137.616C173.578 137.975 173.917 138.537 173.898 139.125C173.869 140.036 173.471 140.796 172.894 141.422C172.114 142.27 171.011 142.88 169.969 143.291ZM168.04 120.594C169.848 121.696 172.603 124.265 170.658 126.997C168.369 129.405 165.072 126.644 163.448 125.395C161.942 124.427 160.249 126.916 161.647 128.047C173.385 136.759 178.148 120.882 168.955 119.299C167.943 119.124 167.567 120.253 168.04 120.594ZM149.023 105.327C151.487 105.209 153.659 106.319 156.007 106.823C158.177 107.289 160.315 107.009 162.426 106.416C165.851 105.454 167.268 110.711 163.889 111.735C161.428 112.481 158.838 112.533 156.313 112.149C154.07 111.807 152.19 110.712 150.052 110.075C148.216 109.528 146.058 109.755 144.119 110.013L143.367 110.114C142.249 110.265 141.125 110.417 140.018 110.636C139.057 110.826 138.098 111.175 137.118 111.215C137.006 111.22 136.912 111.075 136.982 110.978C138.121 109.41 140.316 108.173 142.062 107.348L142.181 107.293C144.336 106.285 146.623 105.442 149.023 105.327ZM148.119 116.887L148.119 116.833C148.123 115.302 149.012 111.807 151.21 111.807C152.583 111.807 153.417 114.186 153.561 116.638L153.566 116.738C153.63 118.262 153.213 121.594 151.21 121.594C149.186 121.594 148.14 118.438 148.119 116.887ZM180.481 116.887L180.481 116.833C180.478 115.302 179.588 111.807 177.39 111.807C176.052 111.807 175.226 114.068 175.051 116.454L175.039 116.638C174.953 118.111 175.343 121.594 177.39 121.594C179.414 121.594 180.46 118.438 180.481 116.887ZM180.447 103.463L180.604 103.466C183.173 103.555 185.815 105.081 186.501 107.644C186.536 107.777 186.373 107.866 186.276 107.775C184.164 105.792 181.323 107.687 179.208 108.68L178.431 109.039C175.705 110.311 172.604 111.806 169.577 110.859C168.139 110.408 167.226 108.927 167.636 107.431C168.001 106.1 169.603 104.982 170.991 105.462L171.054 105.485C172.182 105.917 173.569 105.479 174.733 105.047L175.69 104.687C177.229 104.102 178.774 103.447 180.447 103.463Z" fill="black"/>
</svg>
