<svg width="274" height="370" viewBox="0 0 274 370" fill="none" xmlns="http://www.w3.org/2000/svg">
<path fill-rule="evenodd" clip-rule="evenodd" d="M119.775 164.774C120.352 164.262 121.207 164.905 120.84 165.597C120.015 167.151 119.169 168.623 118.062 169.997C117.391 170.83 116.672 171.618 115.943 172.397C117.813 174.016 119.417 176.026 120.931 177.909C122.868 180.318 124.699 182.829 126.873 185.033C129.017 187.207 131.387 188.727 134.254 189.74L134.832 189.942C137.712 190.953 140.789 192.319 142.413 195.047C142.733 195.585 142.088 196.25 141.546 195.914C138.726 194.167 135.412 193.815 132.342 192.661C129.377 191.545 126.792 189.829 124.507 187.638C122.227 185.451 120.313 182.963 118.315 180.527C116.341 178.118 114.214 176.061 111.878 174.023C108.273 176.45 104.159 177.506 99.9745 178.543L99.5178 178.656C95.3287 179.694 91.162 180.899 87.2319 182.707C83.7669 184.3 80.3588 186.203 77.5363 188.795C74.5401 191.547 72.2082 195.061 70.0739 198.498C65.2996 206.186 61.9431 214.61 58.9882 223.135C55.9149 232.003 53.3442 241.049 51.2689 250.202C50.2134 254.857 49.3562 259.546 48.6517 264.268C48.3126 266.542 48.0113 268.821 47.7467 271.105C47.4643 273.544 47.3994 276.053 46.6517 278.398C46.3311 279.403 45.5743 279.82 44.8167 279.785L44.6628 281.71C44.4587 284.278 44.2685 286.846 44.2043 289.43C44.0977 293.725 44.146 298.009 44.4548 302.295L44.4985 302.88C44.7412 306.008 45.2834 309.523 47.6343 311.814C50.069 314.187 53.8131 314.933 57.0946 314.975C64.7374 315.075 72.0944 311.461 78.8575 308.291C85.8228 305.026 92.5978 301.402 99.2105 297.472C102.578 295.471 105.909 293.402 109.198 291.274C110.812 290.229 112.414 289.167 114.005 288.087C114.916 287.469 115.779 286.791 116.706 286.242C116.252 285.819 116.049 285.153 116.43 284.572C113.749 282.243 112.633 278.088 112.503 274.725C112.397 272.011 112.796 269.305 113.111 266.617C113.27 265.261 113.467 263.908 113.67 262.558C113.751 262.025 113.813 261.454 113.907 260.892C106.668 264.872 99.2257 268.417 91.5867 271.567C87.6711 273.181 83.7054 274.633 79.6848 275.963L78.8699 276.231C75.0605 277.479 71.1599 278.658 67.2217 279.371C67.0111 279.409 66.8401 279.098 67.0649 278.999C70.9029 277.304 74.8737 275.875 78.7693 274.314L79.4094 274.054C79.3358 274.049 79.2596 274.039 79.18 274.02C76.8954 273.468 74.6286 272.618 72.3879 271.902C70.3083 271.238 67.9718 270.821 66.028 269.817C65.8785 269.74 65.9622 269.532 66.1079 269.522C68.2926 269.371 70.6643 270.008 72.8064 270.383L73.6111 270.524C74.9591 270.762 76.3371 271.017 77.6786 271.351C77.7271 270.901 77.9781 270.45 78.3353 270.185C82.2661 267.272 81.867 261.389 82.2874 257.05L82.5991 253.829C83.1474 248.192 83.7276 242.556 84.6089 236.961C84.6559 236.663 85.1178 236.748 85.1197 237.03C85.1652 243.966 84.642 250.869 84.3798 257.794L84.3392 258.929C84.1942 263.202 84.0806 267.639 81.3913 270.927C81.7673 270.707 82.2758 270.707 82.5804 271.069C82.9548 271.515 83.1709 272.016 83.1641 272.507C85.5942 271.487 88.0136 270.441 90.4213 269.374C98.162 265.942 105.74 262.102 113.118 257.947C113.912 257.5 114.667 257.851 115.06 258.441L115.116 258.433C115.126 258.431 115.136 258.43 115.145 258.43L115.202 258.428C115.204 258.428 115.206 258.428 115.208 258.428C116.246 257.857 117.661 258.263 118.553 259.096C118.579 259.122 118.601 259.149 118.625 259.175C119.753 258.668 120.807 257.984 121.763 257.117C123.719 255.342 125.377 253.148 126.821 250.948C129.482 246.896 131.742 242.389 135.336 239.053C138.256 236.343 141.877 234.656 145.675 233.597C145.659 233.486 145.701 233.367 145.778 233.289C145.973 233.089 146.112 233.019 146.364 233.141C146.384 233.151 146.396 233.164 146.405 233.179L146.775 232.545C146.978 232.201 147.185 231.855 147.257 231.764C147.688 231.22 148.132 230.681 148.583 230.153C149.347 229.26 150.217 228.378 151.225 227.758C153.432 226.401 155.752 227.169 158.021 227.91C159.392 228.359 160.758 228.821 162.127 229.276L162.268 229.322C163.289 229.651 164.483 229.937 164.939 231.019C165.12 231.448 165.148 231.892 165.064 232.323C174.756 229.857 185.521 230.99 194.979 233.885C195.342 233.996 195.705 234.295 195.781 234.687C196.865 240.248 197.347 245.951 196.857 251.607C196.434 256.49 195.353 261.274 193.316 265.744L193.2 265.996C191.285 270.138 188.251 275.245 183.617 276.543C180.819 277.327 177.724 276.865 174.87 276.721C172.097 276.581 169.262 276.561 166.514 276.125C164.068 275.736 161.924 274.639 160.412 272.648C159.107 270.93 158.421 268.855 157.858 266.79C157.6 266.872 157.344 266.959 157.092 267.058C156.03 267.473 155.129 268.144 154.315 268.933C152.595 270.599 151.261 272.623 149.462 274.213C147.834 275.652 145.978 276.772 143.987 277.632C139.863 279.416 135.438 280.129 131.074 281.074L130.77 281.14C127.486 281.861 124.133 282.747 121.234 284.458C121.177 284.962 120.948 285.436 120.58 285.746C121.091 286.227 121.308 286.988 120.859 287.702C119.603 289.695 117.441 290.829 115.501 292.104L115.374 292.187C113.465 293.454 111.539 294.695 109.597 295.911C105.65 298.384 101.621 300.721 97.5339 302.955C90.9611 306.548 84.2471 309.938 77.4116 313.012C77.8218 315.032 77.6719 317.114 77.9803 319.148L78.0276 319.438C78.1593 320.192 77.9814 320.824 77.4619 321.317L77.407 321.367L77.4079 321.36L77.3592 321.405L77.3429 321.419L77.3484 321.415C77.2885 321.469 77.2267 321.52 77.1637 321.564L77.0835 321.616C76.5832 321.92 75.9391 321.917 75.4269 321.648L75.3684 321.616L75.27 321.559C74.5932 321.17 74.1265 320.205 74.4072 319.438C75.0973 317.553 75.358 315.542 75.9953 313.645L75.4897 313.871L74.8234 314.162C67.6169 317.28 59.612 319.906 51.76 317.78C48.2906 316.841 45.048 314.853 43.3121 311.614C41.6039 308.427 41.3625 304.726 41.2718 301.18C41.1599 296.804 41.3943 292.361 41.971 288.023C42.3581 285.111 42.8263 282.143 43.5484 279.261C43.177 278.933 42.904 278.463 42.8318 277.88C42.491 275.128 43.0875 272.266 43.4527 269.527C43.8094 266.854 44.2035 264.185 44.6493 261.525C45.5492 256.153 46.5948 250.792 47.8121 245.482C49.9785 236.033 52.8394 226.751 56.2837 217.692L56.5853 216.903C59.768 208.622 63.4531 200.518 68.5845 193.243C71.0391 189.763 73.6339 186.608 77.1023 184.1C80.3518 181.75 84.017 180.058 87.7994 178.765C91.586 177.471 95.478 176.603 99.4387 176.064C103.461 175.516 107.707 175.18 111.459 173.529C110.985 172.678 111.392 171.528 112.191 171C114.879 169.223 117.365 166.91 119.775 164.774ZM205.835 242.062C205.948 241.89 206.215 241.999 206.166 242.201C204.858 247.561 203.631 252.932 202.829 258.395C201.382 268.254 201.648 278.243 201.767 288.175L201.773 288.689C201.833 294.038 201.918 299.389 202.095 304.737C202.184 307.439 202.36 310.169 202.264 312.873C202.212 314.34 201.821 315.727 201.683 317.177C201.562 318.444 201.67 319.731 201.73 321C201.771 321.844 200.526 321.808 200.441 321L200.333 319.955C200.193 318.633 200.019 317.318 199.586 316.053C199.065 314.531 198.815 313.036 198.634 311.437C198.358 308.988 198.235 306.515 198.128 304.048L198.055 302.342C197.609 292.035 197.625 281.68 198.346 271.384L198.399 270.649C199.114 260.916 200.355 250.4 205.835 242.062ZM177.964 180.722C177.622 180.581 177.742 180.064 178.12 180.154L178.808 180.319C183.848 181.526 188.796 182.835 193.5 185.083C198.207 187.332 202.192 190.689 205.358 194.818C211.514 202.843 214.071 212.597 216.091 222.341C218.335 233.168 220.378 244.035 222.642 254.859L223.062 256.876C225.157 266.957 227.134 277.044 228.591 287.245L228.696 287.985C230.165 298.474 231.049 309.327 229.446 319.844C229.129 321.925 225.668 321.407 225.804 319.351C226.195 313.408 226.474 307.497 226.204 301.54C225.933 295.583 225.375 289.652 224.543 283.746C223.842 278.777 222.798 273.869 221.874 268.939L221.729 268.16C220.955 263.967 220.158 259.778 219.362 255.589L218.172 249.316C216.389 239.924 214.572 230.524 212.518 221.191L212.396 220.642C210.386 211.663 207.423 202.258 201.395 195.127C195.277 187.891 186.519 184.247 177.964 180.722ZM155.733 275.96C155.881 275.632 156.395 275.668 156.554 275.96C157.173 277.105 157.242 278.566 157.36 279.858L157.372 279.991C157.521 281.568 157.653 283.15 157.734 284.732C157.887 287.734 157.96 290.733 157.951 293.739C157.941 296.819 157.879 299.896 157.713 302.973L157.668 303.797C157.517 306.47 157.263 309.452 155.993 311.789C155.532 312.638 154.277 312.389 154.01 311.529C153.134 308.716 153.584 305.381 153.808 302.499L153.983 300.251C154.155 298.002 154.32 295.753 154.451 293.502C154.63 290.422 154.777 287.339 154.919 284.258C154.965 283.257 155.015 282.256 155.068 281.255L155.149 279.754C155.218 278.499 155.212 277.121 155.733 275.96ZM57.2891 279.947L57.6767 279.573C58.8665 278.408 60.3701 276.613 62.129 276.724C62.8304 276.769 63.2774 277.351 63.1319 278.042C62.8213 279.518 61.3164 280.284 60.2332 281.185C59.0465 282.172 57.9281 283.227 56.8118 284.292C55.8215 285.237 54.8692 286.208 53.9396 287.21L53.5921 287.587C53.2589 287.951 50.8862 290.098 51.1428 290.655L51.1567 290.68C51.2281 290.787 51.1092 290.934 50.9908 290.896C49.9662 290.572 50.0301 289.694 50.4175 288.803C51.1618 287.092 52.4652 285.51 53.6034 284.049C54.7386 282.591 55.9672 281.234 57.2891 279.947ZM159.446 237.046C158.654 235.172 155.735 235.211 154.078 235.323C149.905 235.605 145.391 236.662 141.678 238.613C137.829 240.636 135.236 243.878 132.916 247.463L132.807 247.631C130.546 251.149 128.368 255.312 124.827 257.731C123.024 258.963 120.918 260.088 118.73 260.575C118.58 260.839 118.336 261.049 118.017 261.125L117.869 261.159C117.246 261.296 116.278 261.449 115.441 261.358C115.447 261.767 115.442 262.173 115.453 262.561C115.482 263.673 115.495 264.789 115.495 265.901C115.495 268.231 115.37 270.566 115.467 272.896C115.553 274.957 115.844 277.111 116.833 278.953C117.559 280.304 118.516 281.199 119.671 282.053C122.514 280.319 125.729 279.262 128.991 278.468C132.937 277.507 136.976 276.866 140.832 275.563C142.688 274.936 144.472 274.115 146.089 273C147.804 271.816 149.115 270.214 150.463 268.648L150.674 268.404C152.05 266.825 153.551 265.314 155.496 264.458C157.17 263.721 159.378 263.589 160.842 262.448C161.607 261.851 161.672 260.985 161.752 260.097C160.814 260.231 159.822 260.016 158.887 259.907L158.403 259.85C157.519 259.745 156.655 259.629 155.785 259.404C155.624 259.363 155.624 259.119 155.785 259.077C156.814 258.811 157.833 258.698 158.887 258.575L159.135 258.544C160.088 258.419 161.091 258.23 162.026 258.44C162.194 257.801 162.437 257.19 162.777 256.579C163.254 255.721 164.157 254.747 164.279 253.745C164.316 253.445 164.246 253.092 164.105 252.827L164.056 252.737C163.997 252.63 163.927 252.523 163.824 252.457C163.813 252.47 163.789 252.485 163.736 252.502C163.016 252.728 162.388 252.376 162.055 251.832C160.64 252.008 159.095 251.949 157.768 252.007L156.426 252.072C154.993 252.138 153.494 252.167 152.147 251.877C151.959 251.837 151.902 251.524 152.09 251.443C153.746 250.734 155.755 250.508 157.529 250.236C158.519 250.083 159.517 249.968 160.51 249.834C161.171 249.744 161.873 249.597 162.558 249.561C164.277 247.421 163.351 244.045 160.96 243.124C160.089 243.507 159.306 243.284 158.354 243.202C157.404 243.12 156.452 243.065 155.498 243.069C153.587 243.078 151.562 243.581 149.67 243.364C149.362 243.329 149.076 242.919 149.382 242.669C150.831 241.486 152.907 241.1 154.746 240.848L155.127 240.797C155.743 240.716 156.493 240.598 157.27 240.528C157.446 240.185 157.762 239.925 158.236 239.861C158.377 239.842 158.518 239.83 158.66 239.818L158.657 239.804C159.813 239.749 159.763 237.795 159.446 237.046ZM80.3168 273.593C80.2963 273.625 80.274 273.655 80.2502 273.684L80.2135 273.726L80.4036 273.649L80.3168 273.593ZM179.616 232.858C174.751 232.335 169.879 232.445 164.999 232.586C164.609 233.863 163.251 234.952 161.934 234.993C162.965 236.563 163.072 238.688 162.349 240.353C163.883 240.964 165.206 242.062 166.008 243.626C167.122 245.794 166.976 248.207 165.876 250.211C166.815 251.061 167.369 252.443 167.313 253.744C167.251 255.196 166.387 256.436 165.668 257.638C164.892 258.938 164.866 260.083 164.627 261.539C164.278 263.669 162.842 264.962 160.994 265.769L161.092 266.155C161.569 268.011 162.162 269.969 163.523 271.326C165.275 273.071 167.992 273.055 170.306 273.166L170.418 273.171C172.537 273.277 174.655 273.401 176.773 273.521L178.362 273.61C180.801 273.744 183.143 273.761 185.134 272.147C188.385 269.513 190.613 265.155 192.024 261.296C194.984 253.197 195.02 244.309 193.661 235.874C189.104 234.405 184.375 233.37 179.616 232.858ZM139.157 246.295L139.193 246.298C140.195 246.412 140.883 247.224 141.128 248.187C141.484 249.586 141.309 250.851 142.166 252.114C143.047 253.413 143.589 254.453 143.717 256.058C143.769 256.718 143.745 257.377 143.892 258.023L143.999 258.476C144.112 258.959 144.204 259.424 144.148 259.943C144.097 260.416 143.866 260.784 143.393 260.935C141.848 261.43 140.656 260.291 140.257 258.851C139.912 257.607 140.372 256.124 139.886 254.956C139.617 254.309 139.12 253.767 138.839 253.115C138.561 252.469 138.421 251.794 138.377 251.092C138.292 249.763 139.466 248.167 138.811 246.964C138.671 246.707 138.829 246.287 139.157 246.295ZM118.643 232.586C119.689 232.374 120.875 231.887 121.907 232.292C122.437 232.5 122.699 233.147 122.251 233.597C121.473 234.377 120.343 234.42 119.295 234.604L119.203 234.621C117.965 234.85 116.724 235.067 115.482 235.273C113.144 235.661 110.801 236.003 108.45 236.294C106.035 236.593 103.613 236.86 101.188 237.06L100.25 237.137C98.2013 237.301 96.0698 237.425 94.0599 237.111C93.7678 237.065 93.8149 236.64 94.0599 236.565C96.2618 235.898 98.6772 235.719 100.954 235.437C103.374 235.137 105.79 234.819 108.2 234.443C110.606 234.067 113.008 233.663 115.402 233.217C116.484 233.016 117.565 232.806 118.643 232.586ZM156.379 230.445C155.462 230.12 154.452 229.638 153.457 229.8C151.743 230.078 150.216 231.749 148.859 232.851L149.54 232.718C153.028 232.047 157.646 231.325 160.574 233.543C160.581 233.531 160.587 233.518 160.596 233.505C160.832 233.146 161.106 232.866 161.405 232.558C161.433 232.532 161.461 232.504 161.488 232.475L161.649 232.304L161.28 232.176C160.491 231.896 159.555 231.536 159.407 231.483L159.397 231.479C158.39 231.138 157.382 230.801 156.379 230.445ZM127.725 157.296C127.581 155.449 130.454 155.464 130.596 157.296C130.907 161.295 130.007 165.257 128.071 168.763C128.057 168.789 128.042 168.811 128.027 168.835C129.237 169.466 130.462 170.071 131.714 170.611C133.315 171.303 134.947 171.933 136.607 172.467C138.109 172.951 139.96 173.142 141.223 174.148C143.886 176.27 142.886 180.674 142.373 183.529L142.293 183.979C142.038 185.448 141.854 186.955 142.473 188.365C143.134 189.871 144.47 190.988 145.662 192.065L145.903 192.284C146.959 193.247 148.166 194.417 148.941 195.722C149.648 194.259 150.612 193.063 151.631 191.717C152.359 190.756 151.841 190.44 151.319 189.501C150.816 188.598 150.57 187.635 150.727 186.605C151.018 184.702 152.537 183.328 154.05 182.295C155.837 181.076 157.831 180.173 159.678 179.039C163.473 176.708 167.168 174.044 170.498 171.086C170.59 171.004 170.749 171.111 170.676 171.223C168.045 175.226 164.961 178.685 161.171 181.622C159.634 182.812 158.019 183.8 156.394 184.838L155.927 185.138C155.274 185.561 154.46 186.127 154.165 186.847C153.868 187.571 154.501 188.118 154.842 188.718C155.924 190.624 155.402 192.401 154.119 194.017L154.059 194.092C152.784 195.664 151.818 197.126 151.356 199.135C150.363 203.449 151.746 207.944 153.194 211.994L153.251 212.154C154.034 214.337 154.867 216.505 155.547 218.723L155.734 219.336C156.351 221.377 156.856 223.39 156.164 225.489C155.929 226.202 154.956 226.371 154.552 225.699C153.127 223.331 152.772 220.48 151.878 217.876C151.007 215.338 150.008 212.846 149.167 210.297C148.084 207.016 147.359 203.484 147.752 200.042C147.741 200.022 147.728 200.003 147.718 199.982L147.443 199.379C146.691 197.745 145.965 196.318 144.598 195.015C143.172 193.657 141.624 192.454 140.502 190.809C138.065 187.237 139.572 183.263 139.866 179.357L139.9 178.878C139.953 178.067 139.983 176.965 139.453 176.404C138.858 175.772 137.461 175.611 136.671 175.331C134.629 174.608 132.617 173.765 130.7 172.753C128.876 171.79 127.109 170.726 125.463 169.48L124.629 168.852C123.313 167.859 121.949 166.774 121.067 165.421C120.965 165.266 121.138 165.014 121.322 165.089C122.795 165.687 124.14 166.638 125.517 167.465C125.539 167.415 125.564 167.364 125.592 167.313C127.296 164.226 127.997 160.807 127.725 157.296ZM174.754 178.443C175.341 176.833 178.014 176.957 177.908 178.87C177.826 180.339 177.202 181.665 176.632 182.999L176.572 183.142C175.983 184.532 175.303 185.837 174.49 187.111C172.936 189.547 171.116 191.807 169.171 193.939C167.409 195.873 165.095 197.056 162.429 196.859C161.306 196.776 160.172 196.49 159.188 195.929C158.019 195.262 156.749 193.259 155.257 193.744C155.113 193.791 154.979 193.579 155.103 193.479C156.825 192.092 158.78 194.243 160.428 194.762C162.912 195.542 165.462 194.679 167.06 192.669C168.73 190.571 170.266 188.222 171.669 185.938C172.382 184.778 173.032 183.574 173.593 182.333C174.16 181.081 174.289 179.72 174.754 178.443ZM170.75 168.537C170.678 168.315 170.953 168.103 171.149 168.23C172.28 168.967 173.261 169.941 174.304 170.795C175.462 171.742 176.629 172.67 177.813 173.583C179.54 174.915 177.537 177.367 176.017 175.912C173.937 173.922 171.659 171.319 170.75 168.537ZM164.538 160.746C164.998 158.972 167.716 159.704 167.32 161.457L167.307 161.51C166.557 164.406 167.625 167.353 169.907 169.23L169.991 169.299C171.434 170.454 169.389 172.475 167.96 171.33C164.84 168.832 163.543 164.588 164.538 160.746Z" fill="black"/>
<path fill-rule="evenodd" clip-rule="evenodd" d="M145.943 46.8136C146.618 46.0465 147.658 46.3096 148.289 46.9161C148.7 47.0375 149.098 47.2181 149.474 47.457C150.323 47.3477 151.214 47.3477 152.047 47.3783C152.25 47.2646 152.466 47.1635 152.702 47.0766C154.387 46.459 155.879 46.7728 157.109 47.5996C157.702 47.0373 158.45 46.6844 159.406 46.7378C160.259 46.7856 160.867 47.1881 161.388 47.7184C161.908 46.9671 162.748 46.431 163.795 46.3564C165.257 46.2522 166.663 46.8403 167.829 47.751C168.508 46.9699 169.433 46.521 170.465 46.5167C171.144 46.3931 171.86 46.4419 172.507 46.6378C173.447 46.9224 174.272 47.4556 174.929 48.1475C175.969 47.1493 177.241 46.431 178.708 46.5357C180.607 46.6733 182.182 48.0734 182.913 49.7967C184.198 50.313 185.385 51.0494 186.377 52.0993C186.43 52.1545 186.48 52.2125 186.533 52.2706C187.067 52.4683 187.571 52.7485 188.013 53.1175C189.417 54.2884 189.729 55.9827 189.265 57.643C189.33 57.9087 189.385 58.179 189.436 58.4491C190.75 58.6494 191.944 59.41 192.623 60.6481C193.552 62.3473 193.369 64.5868 192.363 66.209C191.93 66.9067 191.381 67.4947 190.764 68.0088C191.462 69.5969 191.127 71.492 190.003 72.7765C189.729 73.2194 189.393 73.6191 189.014 73.9809C189.432 75.6229 188.689 77.3169 187.207 78.1943L187.08 78.5126C187.058 78.5655 187.037 78.6181 187.015 78.6702C186.998 78.7378 186.978 78.8032 186.958 78.8691C186.923 79.4517 186.731 80.0235 186.351 80.5622C185.574 81.6663 184.61 82.3862 184.099 83.675L184.048 83.8104C183.828 84.4203 183.119 84.8507 182.514 84.6624C185.871 91.5751 187.631 99.2669 188.839 106.805C189.441 110.566 189.906 114.339 190.283 118.127L190.653 121.9C190.979 125.253 191.268 128.617 191.27 131.981C191.275 139.591 189.104 146.911 184.444 152.967C180.037 158.692 173.801 162.841 166.756 164.475C159.482 166.159 150.95 165.496 144.427 161.639C142.504 160.505 144.189 157.777 146.146 158.69C149.85 160.418 153.614 161.702 157.72 161.989C161.723 162.271 165.735 161.769 169.531 160.456C175.81 158.282 181.154 153.727 184.588 148.055C186.28 145.26 187.506 142.227 188.158 139.021C188.97 135.026 188.847 130.897 188.549 126.85L188.528 126.575C187.939 118.779 187.161 110.935 185.905 103.216C184.794 96.3909 183.087 89.7039 180.87 83.1648C180.001 82.3982 179.03 81.7639 177.99 81.2822C170.378 80.9634 162.752 81.0565 155.15 81.5832C148.666 82.0353 142.214 82.8001 135.81 83.9148L135.125 84.0356C133.707 84.2888 132.133 84.4336 130.797 85.0059C129.651 85.4982 129.187 86.4443 128.898 87.6074C128.171 90.5496 128.06 93.7695 127.938 96.7865C127.817 99.7356 128.089 102.709 127.853 105.649C127.654 108.108 127.025 110.626 125.208 112.405C124.257 113.336 123.088 113.845 121.99 114.553C121.28 115.009 120.979 115.479 121.071 116.324C121.268 118.173 122.753 120.502 121.085 122.085C120.792 122.363 120.284 122.399 119.995 122.085C119.307 121.335 118.356 120.763 117.54 120.157C117.198 119.906 117.482 119.419 117.87 119.592C118.38 119.822 118.9 120.092 119.432 120.328C118.257 119.358 116.587 118.882 115.196 118.6C114.495 118.46 113.759 118.419 113.029 118.484C112.49 118.742 111.939 118.982 111.388 119.216C110.687 119.51 109.98 119.778 109.267 120.032C106.796 122.051 105.616 125.337 106.131 128.549C106.413 130.323 107.229 132.251 108.767 133.287C110.589 134.513 113.029 133.987 114.998 134.897C116.842 135.748 117.963 137.47 118.803 139.251L119.154 139.992C119.933 141.634 120.735 143.233 121.8 144.727C123.032 146.457 124.541 148.012 126.188 149.347C126.986 149.993 127.838 150.574 128.718 151.103L128.958 151.246C129.849 151.77 130.486 152.269 130.547 153.377C130.566 153.763 130.323 154.116 130.01 154.316C128.662 155.173 127.321 154.101 126.2 153.353C124.989 152.547 123.831 151.64 122.76 150.65C120.724 148.772 118.962 146.542 117.607 144.121C116.575 142.277 115.987 139.683 114.356 138.254C113.359 137.382 111.951 137.375 110.707 137.216C109.549 137.067 108.454 136.825 107.424 136.253C103.233 133.919 102.049 128.269 103.043 123.903C103.212 123.167 103.448 122.45 103.739 121.759C102.179 122.02 100.427 120.403 101.06 118.771C101.108 118.648 101.163 118.533 101.216 118.414C100.189 117.736 99.3775 116.708 98.9924 115.363C98.7951 114.668 98.7662 113.966 98.8697 113.288C98.3715 112.953 97.9599 112.491 97.6951 111.924C96.8672 111.54 96.1331 110.966 95.695 110.146C95.0885 109.013 95.1655 107.971 95.6276 107.032C95.5626 106.914 95.5 106.793 95.4399 106.67C93.743 105.591 92.5588 103.732 92.6936 101.671C92.7369 100.988 92.9054 100.373 93.1654 99.8179C93.1437 99.7479 93.122 99.6753 93.1028 99.6053C91.6827 98.8812 90.5082 97.6916 90.0894 96.1034C89.6706 94.5054 90.164 92.9125 91.1508 91.6864C89.7067 90.6271 88.8378 89.1475 89.3649 86.9099C89.5791 86.0002 90.0099 85.1721 90.5924 84.4746C90.59 84.4531 90.5852 84.4314 90.5804 84.4095L90.4453 84.3044C88.6625 82.8937 87.6376 81.0959 88.7319 78.8848C89.2229 77.8907 89.9233 77.1977 90.7465 76.7416L90.7874 76.6112C90.1977 75.3441 89.9979 73.937 90.4047 72.4575C90.7368 71.2389 91.5239 70.2684 92.53 69.6242C92.4626 69.0785 92.4722 68.497 92.5805 67.8669C92.761 66.8027 93.2881 65.8735 94.0583 65.2146C94.0872 65.0744 94.1233 64.937 94.1642 64.7992C94.4242 63.9571 94.9104 63.0424 95.4736 62.3639C95.9381 61.8016 96.458 61.5964 97.0934 61.5747C97.0549 61.056 97.0814 60.5296 97.1873 59.9962C97.5122 58.3504 98.5568 56.8031 100.104 56.1007C100.74 55.8135 101.409 55.7293 102.054 55.799C102.603 54.6405 103.674 53.8008 104.99 53.6198C105.503 53.5474 105.98 53.552 106.418 53.6174C106.666 53.5013 106.923 53.3978 107.193 53.3034C107.371 53.2406 107.551 53.1827 107.732 53.125C108.341 52.3672 109.142 51.7611 110.079 51.3969C111.159 50.9745 112.259 51.0177 113.234 51.3725L113.544 51.3074C114.031 50.4626 114.806 49.8085 115.997 49.5117C117.35 49.1762 118.738 49.6444 119.802 50.4967C119.807 50.4967 119.812 50.4967 119.819 50.494C120.375 49.2462 121.326 48.3773 122.922 48.4376C123.916 48.4763 124.813 48.9713 125.507 49.676C125.892 49.6275 126.277 49.5841 126.664 49.5409C127.074 49.0603 127.528 48.6117 128.031 48.2086C128.855 47.547 129.926 47.6004 130.532 48.5318C130.665 48.7345 130.787 48.9397 130.91 49.1448L131.466 49.1062C132.121 48.2204 133.014 47.6219 134.236 47.5738C135.358 47.5277 136.157 48.0783 136.766 48.8479C137.262 48.8359 137.76 48.8265 138.258 48.819C138.838 48.1456 139.522 47.5519 140.302 47.0595C140.899 46.683 141.78 46.8111 142.263 47.3132C142.59 47.6544 142.894 48.0107 143.177 48.3795C143.906 47.5598 144.891 47.0199 145.943 46.8136ZM110.519 123.456C111.643 122.814 113.155 123.51 114.242 124.055C115.569 124.719 116.885 125.72 117.696 126.975C118.801 128.684 116.204 130.065 115.042 128.532C114.327 127.588 113.756 126.638 112.89 125.812C112.098 125.054 110.95 124.547 110.495 123.548C110.478 123.514 110.483 123.476 110.519 123.456ZM111.309 81.979L111.33 81.9188C111.65 81.0419 110.255 80.6639 109.938 81.5336C109.458 82.8516 110.011 84.2845 111.31 84.8537C111.669 85.0115 112.081 84.9567 112.297 84.594C112.48 84.2886 112.395 83.7596 112.038 83.6034C111.308 83.2831 111.063 82.7177 111.309 81.979ZM99.2899 79.527C99.9881 78.9091 98.9635 77.888 98.2686 78.5032C97.6202 79.0771 97.1393 79.8567 97.2642 80.7533C97.3916 81.6671 98.0787 82.3123 98.8309 82.7682C99.628 83.2516 100.355 82 99.5597 81.5177L99.4704 81.4629C99.1367 81.2551 98.7461 80.9694 98.6896 80.5605C98.6297 80.1261 98.9962 79.7869 99.2899 79.527ZM103.255 68.6246L103.304 68.5881C104.054 68.0513 103.334 66.7948 102.575 67.3376C101.88 67.8355 101.322 68.4824 101.263 69.3744C101.206 70.2414 101.646 70.993 102.221 71.6029C102.861 72.2813 103.881 71.2561 103.243 70.5791C102.62 69.9192 102.498 69.1992 103.255 68.6246Z" fill="black"/>
<path fill-rule="evenodd" clip-rule="evenodd" d="M168.342 141.761C168.712 141.118 169.564 140.521 170.344 140.613C173.836 141.023 173.83 145.259 172.482 147.733C171.286 149.926 168.812 151.213 166.335 151.025C163.733 150.828 161.516 149.297 160.541 146.862C159.895 145.251 159.597 142.276 161.314 141.194C161.346 141.174 161.398 141.179 161.423 141.208C162.246 142.166 162.279 143.604 162.999 144.671C163.669 145.663 164.71 146.482 165.93 146.608C166.84 146.703 167.762 146.374 168.118 145.556C168.311 145.113 168.289 144.873 168.216 144.568L168.151 144.304C167.922 143.377 167.82 142.671 168.342 141.761ZM169.276 123.181C171.097 124.288 173.872 126.872 171.913 129.618C169.607 132.04 166.286 129.263 164.65 128.007C163.132 127.034 161.428 129.537 162.835 130.674C174.66 139.434 179.458 123.47 170.197 121.878C169.177 121.703 168.799 122.838 169.276 123.181ZM150.042 115.584C151.16 113.906 153.712 114.153 154.328 116.144C154.661 117.223 154.2 118.193 154.224 119.27C154.244 120.181 154.185 121.195 153.906 122.076C153.27 124.086 151.464 125.506 149.326 125.447C147.196 125.388 145.32 124.039 144.428 122.139C143.532 120.232 143.722 118.257 144.375 116.318C144.407 116.225 144.529 116.18 144.602 116.258C145.375 117.08 145.941 117.947 146.526 118.867L147.126 119.81C147.584 120.52 148.25 121.427 149.106 121.37L149.235 121.358C149.472 121.337 149.436 121.384 149.619 121.06C149.704 120.91 149.689 120.631 149.73 120.454L149.744 120.394L149.736 120.362C149.718 120.276 149.7 120.114 149.686 119.834L149.683 119.772C149.621 118.459 149.25 116.773 150.042 115.584ZM178.381 116.701C178.18 114.555 181.196 114.078 182.199 115.666C182.722 116.495 182.874 117.535 182.99 118.521L183.044 118.989C183.162 120.001 183.209 121.055 182.77 121.999C182.078 123.487 180.574 124.273 178.951 124.148C177.402 124.029 175.988 123.13 175.242 121.765C174.578 120.547 173.917 118.17 174.724 116.899C174.773 116.822 174.871 116.812 174.937 116.872C175.7 117.549 175.824 118.785 176.278 119.668C176.745 120.578 177.455 121.465 178.53 121.604C179.558 121.736 179.951 121.174 179.689 120.193C179.35 118.926 178.508 118.064 178.381 116.701ZM150.857 102.822L151.35 102.633C153.04 101.994 155.36 101.256 156.734 102.631C157.581 103.479 157.743 104.728 157.138 105.762C156.405 107.016 155.09 107.047 153.82 107.231C152.376 107.441 150.908 107.84 149.563 108.409C148.049 109.051 146.643 109.85 145.266 110.743C143.958 111.591 142.654 112.978 141.087 113.239C141.023 113.25 140.95 113.222 140.934 113.152C140.578 111.62 141.567 110.111 142.449 108.916C143.517 107.468 144.81 106.28 146.256 105.214C147.651 104.186 149.245 103.443 150.857 102.822ZM181.554 108.271L181.704 108.244C182.729 108.074 183.658 108.113 184.43 108.925C185.019 109.545 185.246 110.348 184.965 111.167C184.706 111.923 184.126 112.69 183.285 112.849C180.444 113.384 177.297 113.295 174.442 112.89C173.135 112.705 171.817 112.478 170.545 112.12L169.959 111.95C168.897 111.647 167.681 111.33 166.909 110.548C166.632 110.267 166.792 109.865 167.124 109.735C168.47 109.207 170.315 109.488 171.751 109.447C173.421 109.399 175.094 109.273 176.756 109.101C178.38 108.932 179.952 108.565 181.554 108.271Z" fill="black"/>
<path fill-rule="evenodd" clip-rule="evenodd" d="M147.788 147.998C149.74 143.421 154.003 140.056 158.91 138.826C162.513 137.925 166.295 137.954 169.968 138.311C171.893 138.497 173.957 138.65 175.771 139.365C177.32 139.976 178.582 141.131 179.531 142.487C180.661 144.093 181.429 145.932 181.969 147.817C182.045 148.084 182.117 148.354 182.185 148.626C181.95 150.048 181.452 151.258 180.136 152.152C178.851 153.025 177.319 153.382 175.791 153.509C175.641 153.437 175.497 153.363 175.364 153.287C172.983 151.923 171.308 148.701 168.303 149.137C165.622 149.526 163.857 152.902 162.262 154.882C157.143 155.479 152.029 153.94 147.864 151.011C147.652 150.008 147.64 148.998 147.788 147.998ZM185.663 144.526C185.254 143.376 184.738 142.262 184.127 141.213C182.106 137.744 179.003 134.979 175.32 133.399C166.608 129.666 155.335 132.298 148.299 138.42C145.895 140.513 143.465 143.588 142.73 146.897C142.511 146.94 142.304 147.054 142.133 147.215C137.05 144.013 131.815 140.931 127.718 136.492C124.743 133.266 122.674 129.449 121.407 125.254C121.304 124.909 120.747 124.96 120.764 125.342C120.769 125.431 120.774 125.52 120.779 125.61C120.726 125.445 120.475 125.53 120.456 125.689C119.774 130.785 118.921 136.188 119.707 141.31C120.176 144.366 121.564 146.604 123.419 149.02C125.406 151.61 127.656 154.019 129.956 156.329C131.416 157.795 132.941 159.486 134.728 160.562C136.807 161.811 139.165 162.761 141.383 163.724C143.64 164.708 145.931 165.616 148.265 166.404C152.931 167.984 157.753 169.076 162.66 169.555C166.589 169.936 171.079 170.352 174.843 168.873C177.729 167.74 180.058 165.691 181.906 163.227C183.917 160.542 185.507 157.485 186.386 154.26C187.3 150.911 185.856 145.066 185.663 144.526Z" fill="black"/>
</svg>
