<svg width="16" height="16" viewBox="0 0 16 16" fill="none" xmlns="http://www.w3.org/2000/svg">
<path fill-rule="evenodd" clip-rule="evenodd" d="M10.2495 4.25H11.7495V7.99145L11.7495 8L11.7495 8.00813C11.75 9.85436 11.8925 10.25 12.4995 10.25C13.4778 10.25 13.9995 9.78737 13.9995 8C13.9995 4.03299 12.0098 2 7.99963 2C5.4016 2.00033 3.09894 3.6727 2.29493 6.14319C1.49092 8.61368 2.36825 11.321 4.46846 12.8503C6.56867 14.3797 9.41456 14.3836 11.519 12.86L12.3986 14.075C9.7681 15.9795 6.21074 15.9746 3.58548 14.0629C0.96022 12.1512 -0.136446 8.76711 0.868564 5.67899C1.87357 2.59087 4.75191 0.500408 7.99954 0.5C12.8456 0.5 15.4995 3.2117 15.4995 8C15.4995 10.6587 14.2687 11.75 12.4995 11.75C11.4916 11.75 10.9148 11.425 10.5982 10.7036C9.92415 11.3516 9.00837 11.75 7.99955 11.75C5.92848 11.75 4.24955 10.0711 4.24955 8C4.24955 5.92893 5.92848 4.25 7.99955 4.25C8.84375 4.25 9.6228 4.52896 10.2495 4.99972V4.25ZM10.2495 8C10.2495 9.24264 9.24219 10.25 7.99955 10.25C6.75691 10.25 5.74955 9.24264 5.74955 8C5.74955 6.75736 6.75691 5.75 7.99955 5.75C9.24219 5.75 10.2495 6.75736 10.2495 8Z" fill="#333333"/>
</svg>
