<svg width="32" height="32" viewBox="0 0 32 32" fill="none" xmlns="http://www.w3.org/2000/svg">
<path fill-rule="evenodd" clip-rule="evenodd" d="M16.5833 11.2498C16.5833 8.12343 17.8824 5.20906 20.1297 3.12362L22.4692 0.952588L19.3252 0.403309C18.4254 0.246122 17.5091 0.166504 16.5833 0.166504C7.83882 0.166504 0.75 7.25533 0.75 15.9998C0.75 24.7443 7.83882 31.8332 16.5833 31.8332C21.9435 31.8332 26.8501 29.1476 29.7671 24.7708L31.535 22.1183L28.3532 22.3123C28.1254 22.3262 27.8965 22.3332 27.6667 22.3332C21.5455 22.3332 16.5833 17.371 16.5833 11.2498ZM16.5833 28.6666C9.58773 28.6666 3.91667 22.9955 3.91667 15.9999C3.91667 9.26741 9.16914 3.76171 15.7998 3.35706C14.2664 5.65831 13.4167 8.38696 13.4167 11.2499C13.4167 18.2783 18.505 24.1183 25.1989 25.287C22.8974 27.4242 19.8465 28.6666 16.5833 28.6666Z" fill="black"/>
</svg>
