<svg width="27" height="26" viewBox="0 0 27 26" fill="none" xmlns="http://www.w3.org/2000/svg">
<path fill-rule="evenodd" clip-rule="evenodd" d="M13.5 25.8332C6.15922 25.8332 0.208344 20.0875 0.208344 12.9998C0.208344 5.91218 6.15922 0.166504 13.5 0.166504C20.8408 0.166504 26.7917 5.91218 26.7917 12.9998C26.7917 20.0875 20.8408 25.8332 13.5 25.8332ZM22.4411 18.9786C23.6604 17.2819 24.375 15.2214 24.375 12.9998C24.375 7.20082 19.5061 2.49981 13.5 2.49981C7.49391 2.49981 2.62501 7.20082 2.62501 12.9998C2.62501 15.2214 3.3396 17.2819 4.55895 18.9786C5.91887 17.2442 9.11449 16.4998 13.5 16.4998C17.8855 16.4998 21.0811 17.2442 22.4411 18.9786ZM20.7073 20.8629C20.3537 19.6351 17.813 18.8331 13.5 18.8331C9.18701 18.8331 6.64635 19.6351 6.29269 20.8629C8.2115 22.5037 10.7353 23.4998 13.5 23.4998C16.2647 23.4998 18.7885 22.5037 20.7073 20.8629ZM13.5 5.99981C10.5748 5.99981 8.66668 8.0482 8.66668 10.6665C8.66668 14.6651 10.7944 16.4998 13.5 16.4998C16.1802 16.4998 18.3333 14.726 18.3333 10.8998C18.3333 8.24165 16.4172 5.99981 13.5 5.99981ZM11.0833 10.6665C11.0833 13.314 12.072 14.1665 13.5 14.1665C14.9231 14.1665 15.9167 13.348 15.9167 10.8999C15.9167 9.44202 14.9689 8.3332 13.5 8.3332C11.9699 8.3332 11.0833 9.28499 11.0833 10.6665Z" fill="#E0E0E0"/>
</svg>
