<svg width="34" height="34" viewBox="0 0 34 34" fill="none" xmlns="http://www.w3.org/2000/svg">
<path fill-rule="evenodd" clip-rule="evenodd" d="M7.38422 26.6157L10.0513 33.7757L17 30.5987L23.9488 33.7757L26.6158 26.6157L33.7758 23.9487L30.5988 16.9999L33.7758 10.0512L26.6158 7.3841L23.9488 0.224121L17 3.4011L10.0513 0.224121L7.38422 7.3841L0.224243 10.0512L3.40122 16.9999L0.224243 23.9487L7.38422 26.6157ZM22.1696 29.4803L17 27.1168L11.8305 29.4803L9.84633 24.1536L4.51964 22.1695L6.88316 16.9999L4.51964 11.8304L9.84633 9.84621L11.8305 4.51952L17 6.88304L22.1696 4.51952L24.1538 9.84621L29.4804 11.8304L27.1169 16.9999L29.4804 22.1695L24.1538 24.1536L22.1696 29.4803ZM17 24.9166C12.6278 24.9166 9.08335 21.3722 9.08335 16.9999C9.08335 12.6276 12.6278 9.08323 17 9.08323C21.3723 9.08323 24.9167 12.6276 24.9167 16.9999C24.9167 21.3722 21.3723 24.9166 17 24.9166ZM21.75 16.9999C21.75 19.6233 19.6234 21.7499 17 21.7499C14.3767 21.7499 12.25 19.6233 12.25 16.9999C12.25 14.3765 14.3767 12.2499 17 12.2499C19.6234 12.2499 21.75 14.3765 21.75 16.9999Z" fill="black"/>
</svg>
